<?xml version="1.0" encoding="utf-8"?>
<!-- Generator: Adobe Illustrator 21.1.0, SVG Export Plug-In . SVG Version: 6.00 Build 0)  -->
<svg version="1.1" xmlns="http://www.w3.org/2000/svg" xmlns:xlink="http://www.w3.org/1999/xlink" x="0px" y="0px"
	 viewBox="0 0 200 200" style="enable-background:new 0 0 200 200;" xml:space="preserve">
<style type="text/css">
	.st0{fill:url(#SVGID_1_);}
	.st1{opacity:0.75;}
	.st2{fill:#242062;}
	.st3{fill:#CDD4EC;}
</style>
<g id="Layer_2">
</g>
<g id="Layer_1">
	<g>
		
			<radialGradient id="SVGID_1_" cx="101.5564" cy="615.0226" r="122.3181" gradientTransform="matrix(-1 0 0 -1 201.923 688.0569)" gradientUnits="userSpaceOnUse">
			<stop  offset="0" style="stop-color:#2A3492"/>
			<stop  offset="0.8587" style="stop-color:#2A3492;stop-opacity:0.1413"/>
			<stop  offset="1" style="stop-color:#2A3492;stop-opacity:0"/>
		</radialGradient>
		<polygon class="st0" points="99,186.4 198,14.9 -0.1,14.9 		"/>
	</g>
	<g>
		<g class="st1">
			<path class="st2" d="M87,38.1L87,38.1v0.8v17.7h-3v-22h4.4l6.9,18.1l6.9-18.1h4.4v22h-3V38.9l0.1-0.8h-0.1l-7.1,18.5h-2.4
				L87,38.1z"/>
			<path class="st2" d="M118.7,41.2h2.5l-5.7,9v6.4h-2.1v-6.4l-5.7-9h2.5l4.3,7.1L118.7,41.2z"/>
			<path class="st2" d="M50.9,81.7c-0.1,2,1.6,3.6,4.4,3.6c2.7,0,3.8-1.4,3.8-2.9c0-1.9-1.7-2.4-3.1-2.7c-3.5-0.8-6.6-1.1-6.6-4.6
				c0-2.9,2.4-4.4,5.8-4.4c3.8,0,5.5,2.1,5.7,4.5h-2.1c-0.3-2.6-2.7-2.7-3.7-2.7c-2.1,0-3.6,1-3.6,2.6c0,1.9,1.8,2.2,3.9,2.6
				c2.8,0.5,5.9,1.1,5.9,4.8c0,4.6-4.8,4.6-6.1,4.6c-2.2,0-6.1-0.5-6.4-5.4H50.9z"/>
			<path class="st2" d="M70.6,70.7c3.4,0,7.4,1.9,7.4,8.2c0,8.1-6.4,8.2-7.4,8.2c-1,0-7.4-0.1-7.4-8.2
				C63.3,73.5,66.3,70.7,70.6,70.7z M70.6,85.3c1.1,0,5.2-0.2,5.2-6.4c0-3.6-1.6-6.4-5.2-6.4c-4.7,0-5.2,4.8-5.2,6.4
				C65.5,81.4,66.2,85.3,70.6,85.3z"/>
			<path class="st2" d="M82.6,71.2v9.2c0,1.9,0.1,5,4,5c3.1,0,4-1.7,4-5v-9.2h2.1v9.4c0,6.3-4.4,6.4-6.1,6.4c-5.6,0-6.1-3.8-6.1-6.4
				v-9.4H82.6z"/>
			<path class="st2" d="M96.2,71.2h6.8c1.7,0,5.1,0.2,5.1,4.1c0,1.8-1,3.5-2.6,3.8v0.1c2.1,0.8,2.2,2.1,2.2,3.7
				c0.1,2.1,0,2.8,0.6,3.7h-2.2c-0.5-0.7-0.6-1.3-0.6-3.3c0-1.6-0.2-3.3-2.9-3.3h-4.4v6.5h-2.1V71.2z M98.3,78.3h4.6
				c1,0,3-0.4,3-2.8c0-2-1.4-2.6-3.3-2.6h-4.3V78.3z"/>
			<path class="st2" d="M124.2,81.5c-0.3,2.2-1.6,5.6-6.5,5.6c-4.6,0-7.3-3-7.3-7.9c0-8.2,6-8.4,7.3-8.4c4.9,0,6.1,2.9,6.4,5.2h-2.1
				c-0.1-1.1-0.8-3.5-4.3-3.5c-3.9,0-5.1,3.3-5.1,6.6c0,3.6,2,6.3,5.2,6.3c2.5,0,4.2-1.6,4.4-3.8H124.2z"/>
			<path class="st2" d="M137,77.8v1.7h-8.1v5.4h9.2v1.7h-11.2V71.2h11v1.7h-8.9v4.8H137z"/>
			<path class="st2" d="M141.5,81.7c-0.1,2,1.6,3.6,4.4,3.6c2.7,0,3.8-1.4,3.8-2.9c0-1.9-1.7-2.4-3.1-2.7c-3.5-0.8-6.6-1.1-6.6-4.6
				c0-2.9,2.4-4.4,5.8-4.4c3.8,0,5.5,2.1,5.7,4.5h-2.1c-0.3-2.6-2.7-2.7-3.7-2.7c-2.1,0-3.6,1-3.6,2.6c0,1.9,1.8,2.2,3.9,2.6
				c2.8,0.5,5.9,1.1,5.9,4.8c0,4.6-4.8,4.6-6.1,4.6c-2.2,0-6.1-0.5-6.4-5.4H141.5z"/>
			<path class="st2" d="M84.8,111.7c-0.1,2,1.6,3.6,4.4,3.6c2.7,0,3.8-1.4,3.8-2.9c0-1.9-1.7-2.4-3.1-2.7c-3.5-0.8-6.6-1.1-6.6-4.6
				c0-2.9,2.4-4.4,5.8-4.4c3.8,0,5.5,2.1,5.7,4.5h-2.1c-0.3-2.6-2.7-2.7-3.7-2.7c-2.1,0-3.6,1-3.6,2.6c0,1.9,1.8,2.2,3.9,2.6
				c2.8,0.5,5.9,1.1,5.9,4.8c0,4.6-4.8,4.6-6.1,4.6c-2.2,0-6.1-0.5-6.4-5.3H84.8z"/>
			<path class="st2" d="M98.3,116.6h-2.2l5.8-15.4h2.2l5.8,15.4h-2.2l-1.5-4h-6.5L98.3,116.6z M105.7,110.9l-2.7-7.6l-2.7,7.6H105.7
				z"/>
			<path class="st2" d="M118.3,101.2h2.5l-5.7,9v6.4H113v-6.4l-5.7-9h2.5l4.3,7.1L118.3,101.2z"/>
			<path class="st2" d="M87.8,146.6h-2.1v-15.4H88l8.2,12.2v-12.2h2.1v15.4H96l-8.2-12.2V146.6z"/>
			<path class="st2" d="M108.5,130.7c3.4,0,7.4,1.9,7.4,8.2c0,8.1-6.4,8.2-7.4,8.2c-1,0-7.4-0.1-7.4-8.2
				C101.2,133.5,104.2,130.7,108.5,130.7z M108.5,145.3c1.1,0,5.2-0.2,5.2-6.4c0-3.6-1.6-6.4-5.2-6.4c-4.7,0-5.2,4.8-5.2,6.4
				C103.4,141.4,104.1,145.3,108.5,145.3z"/>
		</g>
		<g>
			<g>
				<path class="st3" d="M85.6,36.7L85.6,36.7v0.8v17.7h-3v-22h4.4L94,51.3l6.9-18.1h4.4v22h-3V37.5l0.1-0.8h-0.1l-7.1,18.5h-2.4
					L85.6,36.7z"/>
				<path class="st3" d="M117.2,39.8h2.5l-5.7,9v6.4h-2.1v-6.4l-5.7-9h2.5l4.3,7.1L117.2,39.8z"/>
				<path class="st3" d="M49.5,80.3c-0.1,2,1.6,3.6,4.4,3.6c2.7,0,3.8-1.4,3.8-2.9c0-1.9-1.7-2.4-3.1-2.7c-3.5-0.8-6.6-1.1-6.6-4.6
					c0-2.9,2.4-4.4,5.8-4.4c3.8,0,5.5,2.1,5.7,4.5h-2.1c-0.3-2.6-2.7-2.7-3.7-2.7c-2.1,0-3.6,1-3.6,2.6c0,1.9,1.8,2.2,3.9,2.6
					c2.8,0.5,5.9,1.1,5.9,4.8c0,4.6-4.8,4.6-6.1,4.6c-2.2,0-6.1-0.5-6.4-5.4H49.5z"/>
				<path class="st3" d="M69.2,69.3c3.4,0,7.4,1.9,7.4,8.2c0,8.1-6.4,8.2-7.4,8.2c-1,0-7.4-0.1-7.4-8.2
					C61.9,72.1,64.9,69.3,69.2,69.3z M69.2,83.9c1.1,0,5.2-0.2,5.2-6.4c0-3.6-1.6-6.4-5.2-6.4c-4.7,0-5.2,4.8-5.2,6.4
					C64.1,79.9,64.8,83.9,69.2,83.9z"/>
				<path class="st3" d="M81.2,69.8v9.2c0,1.9,0.1,5,4,5c3.1,0,4-1.7,4-5v-9.2h2.1v9.4c0,6.3-4.4,6.4-6.1,6.4
					c-5.6,0-6.1-3.8-6.1-6.4v-9.4H81.2z"/>
				<path class="st3" d="M94.8,69.8h6.8c1.7,0,5.1,0.2,5.1,4.1c0,1.8-1,3.5-2.6,3.8v0.1c2.1,0.8,2.2,2.1,2.2,3.7
					c0.1,2.1,0,2.8,0.6,3.7h-2.2c-0.5-0.7-0.6-1.3-0.6-3.3c0-1.6-0.2-3.3-2.9-3.3h-4.4v6.5h-2.1V69.8z M96.8,76.9h4.6
					c1,0,3-0.4,3-2.8c0-2-1.4-2.6-3.3-2.6h-4.3V76.9z"/>
				<path class="st3" d="M122.7,80.1c-0.3,2.2-1.6,5.6-6.5,5.6c-4.6,0-7.3-3-7.3-7.9c0-8.2,6-8.4,7.3-8.4c4.9,0,6.1,2.9,6.4,5.2
					h-2.1c-0.1-1.1-0.8-3.5-4.3-3.5c-3.9,0-5.1,3.3-5.1,6.6c0,3.6,2,6.3,5.2,6.3c2.5,0,4.2-1.6,4.4-3.8H122.7z"/>
				<path class="st3" d="M135.6,76.3v1.7h-8.1v5.4h9.2v1.7h-11.2V69.8h11v1.7h-8.9v4.8H135.6z"/>
				<path class="st3" d="M140.1,80.3c-0.1,2,1.6,3.6,4.4,3.6c2.7,0,3.8-1.4,3.8-2.9c0-1.9-1.7-2.4-3.1-2.7c-3.5-0.8-6.6-1.1-6.6-4.6
					c0-2.9,2.4-4.4,5.8-4.4c3.8,0,5.5,2.1,5.7,4.5H148c-0.3-2.6-2.7-2.7-3.7-2.7c-2.1,0-3.6,1-3.6,2.6c0,1.9,1.8,2.2,3.9,2.6
					c2.8,0.5,5.9,1.1,5.9,4.8c0,4.6-4.8,4.6-6.1,4.6c-2.2,0-6.1-0.5-6.4-5.4H140.1z"/>
				<path class="st3" d="M83.4,110.3c-0.1,2,1.6,3.6,4.4,3.6c2.7,0,3.8-1.4,3.8-2.9c0-1.9-1.7-2.4-3.1-2.7c-3.5-0.8-6.6-1.1-6.6-4.6
					c0-2.9,2.4-4.4,5.8-4.4c3.8,0,5.5,2.1,5.7,4.5h-2.1c-0.3-2.6-2.7-2.7-3.7-2.7c-2.1,0-3.6,1-3.6,2.6c0,1.9,1.8,2.2,3.9,2.6
					c2.8,0.5,5.9,1.1,5.9,4.8c0,4.6-4.8,4.6-6.1,4.6c-2.2,0-6.1-0.5-6.4-5.3H83.4z"/>
				<path class="st3" d="M96.9,115.2h-2.2l5.8-15.4h2.2l5.8,15.4h-2.2l-1.5-4h-6.5L96.9,115.2z M104.3,109.4l-2.7-7.6l-2.7,7.6
					H104.3z"/>
				<path class="st3" d="M116.9,99.8h2.5l-5.7,9v6.4h-2.1v-6.4l-5.7-9h2.5l4.3,7.1L116.9,99.8z"/>
				<path class="st3" d="M86.4,145.2h-2.1v-15.4h2.3l8.2,12.2v-12.2h2.1v15.4h-2.3l-8.2-12.2V145.2z"/>
				<path class="st3" d="M107.1,129.3c3.4,0,7.4,1.9,7.4,8.2c0,8.1-6.4,8.2-7.4,8.2c-1,0-7.4-0.1-7.4-8.2
					C99.8,132.1,102.8,129.3,107.1,129.3z M107.1,143.9c1.1,0,5.2-0.2,5.2-6.4c0-3.6-1.6-6.4-5.2-6.4c-4.7,0-5.2,4.8-5.2,6.4
					C102,139.9,102.7,143.9,107.1,143.9z"/>
			</g>
		</g>
	</g>
</g>
</svg>
