<?xml version="1.0" encoding="utf-8"?>
<!-- Generator: Adobe Illustrator 21.1.0, SVG Export Plug-In . SVG Version: 6.00 Build 0)  -->
<svg version="1.1" xmlns="http://www.w3.org/2000/svg" xmlns:xlink="http://www.w3.org/1999/xlink" x="0px" y="0px"
	 viewBox="0 0 200 200" style="enable-background:new 0 0 200 200;" xml:space="preserve">
<style type="text/css">
	.st0{fill:url(#SVGID_1_);}
	.st1{opacity:0.75;}
	.st2{fill:#242062;}
	.st3{fill:#CDD4EC;}
</style>
<g id="Layer_2">
</g>
<g id="Layer_1">
	<g>
		
			<radialGradient id="SVGID_1_" cx="101.5564" cy="501.0226" r="122.3181" gradientTransform="matrix(-1 0 0 -1 201.923 574.0569)" gradientUnits="userSpaceOnUse">
			<stop  offset="0" style="stop-color:#2A3492"/>
			<stop  offset="0.8587" style="stop-color:#2A3492;stop-opacity:0.1413"/>
			<stop  offset="1" style="stop-color:#2A3492;stop-opacity:0"/>
		</radialGradient>
		<polygon class="st0" points="99,186.4 198,14.9 -0.1,14.9 		"/>
	</g>
	<g>
		<g class="st1">
			<path class="st2" d="M41.7,27.6c5.3,0,6.6,3,6.6,5.6c0,2.4-1.6,4.4-3.7,4.7V38c1.8,0.3,4.6,1.5,4.6,5.5c0,3.1-1.6,6.1-7.9,6.1
				h-9.3v-22H41.7z M35,36.9H41c3.2,0,4.3-1.6,4.3-3.4c0-1.3-0.5-3.4-4.2-3.4h-6V36.9z M35,47.1h6.1c2,0,5.1-0.3,5.1-3.9
				c0-2.8-2-3.8-5.1-3.8H35V47.1z"/>
			<path class="st2" d="M63.1,40.8v1.7H55v5.4h9.2v1.7H53V34.2h11v1.7H55v4.8H63.1z"/>
			<path class="st2" d="M64.8,35.9v-1.7h12.1v1.7h-5v13.7h-2.1V35.9H64.8z"/>
			<path class="st2" d="M77.5,35.9v-1.7h12.1v1.7h-5v13.7h-2.1V35.9H77.5z"/>
			<path class="st2" d="M101.9,40.8v1.7h-8.1v5.4h9.2v1.7H91.8V34.2h11v1.7h-8.9v4.8H101.9z"/>
			<path class="st2" d="M105.2,34.2h6.8c1.7,0,5.1,0.2,5.1,4.1c0,1.8-1,3.5-2.6,3.8v0.1c2.1,0.8,2.2,2.1,2.2,3.7
				c0.1,2.1,0,2.8,0.6,3.7h-2.2c-0.5-0.7-0.6-1.3-0.6-3.3c0-1.6-0.2-3.3-2.9-3.3h-4.4v6.5h-2.1V34.2z M107.3,41.3h4.6
				c1,0,3-0.4,3-2.8c0-2-1.4-2.6-3.3-2.6h-4.3V41.3z"/>
			<path class="st2" d="M129.6,49.6h-2.1V34.2h2.3l8.2,12.2V34.2h2.1v15.4h-2.3l-8.2-12.2V49.6z"/>
			<path class="st2" d="M150.3,33.7c3.4,0,7.4,1.9,7.4,8.2c0,8.1-6.4,8.2-7.4,8.2c-1,0-7.4-0.1-7.4-8.2
				C143,36.5,146,33.7,150.3,33.7z M150.3,48.3c1.1,0,5.2-0.2,5.2-6.4c0-3.6-1.6-6.4-5.2-6.4c-4.7,0-5.2,4.8-5.2,6.4
				C145.2,44.4,145.9,48.3,150.3,48.3z"/>
			<path class="st2" d="M159,35.9v-1.7h12.1v1.7h-5v13.7H164V35.9H159z"/>
			<path class="st2" d="M51.3,65.9v-1.7h12.1v1.7h-5v13.7h-2.1V65.9H51.3z"/>
			<path class="st2" d="M75.7,70.8v1.7h-8.1v5.4h9.2v1.7H65.6V64.2h11v1.7h-8.9v4.8H75.7z"/>
			<path class="st2" d="M89,79.6h-9.9V64.2h2.1v13.7H89V79.6z"/>
			<path class="st2" d="M100.6,79.6h-9.9V64.2h2.1v13.7h7.8V79.6z"/>
			<path class="st2" d="M117.1,64.2h2.5l-5.7,9v6.4h-2.1v-6.4l-5.7-9h2.5l4.3,7.1L117.1,64.2z"/>
			<path class="st2" d="M126,63.7c3.4,0,7.4,1.9,7.4,8.2c0,8.1-6.4,8.2-7.4,8.2c-1,0-7.4-0.1-7.4-8.2
				C118.7,66.5,121.7,63.7,126,63.7z M126,78.3c1.1,0,5.2-0.2,5.2-6.4c0-3.6-1.6-6.4-5.2-6.4c-4.7,0-5.2,4.8-5.2,6.4
				C120.9,74.4,121.6,78.3,126,78.3z"/>
			<path class="st2" d="M138,64.2v9.2c0,1.9,0.1,5,4,5c3.1,0,4-1.7,4-5v-9.2h2.1v9.4c0,6.3-4.4,6.4-6.1,6.4c-5.6,0-6.1-3.8-6.1-6.4
				v-9.4H138z"/>
			<path class="st2" d="M78.8,109.6h-2.1V94.2H79l8.2,12.2V94.2h2.1v15.4H87l-8.2-12.2V109.6z"/>
			<path class="st2" d="M99.5,93.7c3.4,0,7.4,1.9,7.4,8.2c0,8.1-6.4,8.2-7.4,8.2c-1,0-7.4-0.1-7.4-8.2
				C92.1,96.5,95.2,93.7,99.5,93.7z M99.5,108.3c1.1,0,5.2-0.2,5.2-6.4c0-3.6-1.6-6.4-5.2-6.4c-4.7,0-5.2,4.8-5.2,6.4
				C94.3,104.4,95.1,108.3,99.5,108.3z"/>
			<path class="st2" d="M113.7,109.6H111l-4.1-15.4h2.3l3.2,12.9l3.2-12.9h2.4l3.2,12.9l3.2-12.9h2.3l-4.1,15.4h-2.6l-3.2-13
				L113.7,109.6z"/>
		</g>
		<g>
			<g>
				<path class="st3" d="M40.3,26.1c5.3,0,6.6,3,6.6,5.6c0,2.4-1.6,4.4-3.7,4.7v0.1c1.8,0.3,4.6,1.5,4.6,5.5c0,3.1-1.6,6.1-7.9,6.1
					h-9.3v-22H40.3z M33.6,35.5h5.9c3.2,0,4.3-1.6,4.3-3.4c0-1.3-0.5-3.4-4.2-3.4h-6V35.5z M33.6,45.7h6.1c2,0,5.1-0.3,5.1-3.9
					c0-2.8-2-3.8-5.1-3.8h-6.1V45.7z"/>
				<path class="st3" d="M61.7,39.3v1.7h-8.1v5.4h9.2v1.7H51.5V32.8h11v1.7h-8.9v4.8H61.7z"/>
				<path class="st3" d="M63.4,34.5v-1.7h12.1v1.7h-5v13.7h-2.1V34.5H63.4z"/>
				<path class="st3" d="M76.1,34.5v-1.7h12.1v1.7h-5v13.7h-2.1V34.5H76.1z"/>
				<path class="st3" d="M100.5,39.3v1.7h-8.1v5.4h9.2v1.7H90.3V32.8h11v1.7h-8.9v4.8H100.5z"/>
				<path class="st3" d="M103.8,32.8h6.8c1.7,0,5.1,0.2,5.1,4.1c0,1.8-1,3.5-2.6,3.8v0.1c2.1,0.8,2.2,2.1,2.2,3.7
					c0.1,2.1,0,2.8,0.6,3.7h-2.2c-0.5-0.7-0.6-1.3-0.6-3.3c0-1.6-0.2-3.3-2.9-3.3h-4.4v6.5h-2.1V32.8z M105.9,39.9h4.6
					c1,0,3-0.4,3-2.8c0-2-1.4-2.6-3.3-2.6h-4.3V39.9z"/>
				<path class="st3" d="M128.2,48.2h-2.1V32.8h2.3l8.2,12.2V32.8h2.1v15.4h-2.3l-8.2-12.2V48.2z"/>
				<path class="st3" d="M148.9,32.3c3.4,0,7.4,1.9,7.4,8.2c0,8.1-6.4,8.2-7.4,8.2c-1,0-7.4-0.1-7.4-8.2
					C141.6,35.1,144.6,32.3,148.9,32.3z M148.9,46.9c1.1,0,5.2-0.2,5.2-6.4c0-3.6-1.6-6.4-5.2-6.4c-4.7,0-5.2,4.8-5.2,6.4
					C143.8,42.9,144.5,46.9,148.9,46.9z"/>
				<path class="st3" d="M157.6,34.5v-1.7h12.1v1.7h-5v13.7h-2.1V34.5H157.6z"/>
				<path class="st3" d="M49.9,64.5v-1.7H62v1.7h-5v13.7h-2.1V64.5H49.9z"/>
				<path class="st3" d="M74.3,69.3v1.7h-8.1v5.4h9.2v1.7H64.2V62.8h11v1.7h-8.9v4.8H74.3z"/>
				<path class="st3" d="M87.6,78.2h-9.9V62.8h2.1v13.7h7.8V78.2z"/>
				<path class="st3" d="M99.2,78.2h-9.9V62.8h2.1v13.7h7.8V78.2z"/>
				<path class="st3" d="M115.7,62.8h2.5l-5.7,9v6.4h-2.1v-6.4l-5.7-9h2.5l4.3,7.1L115.7,62.8z"/>
				<path class="st3" d="M124.6,62.3c3.4,0,7.4,1.9,7.4,8.2c0,8.1-6.4,8.2-7.4,8.2c-1,0-7.4-0.1-7.4-8.2
					C117.3,65.1,120.3,62.3,124.6,62.3z M124.6,76.9c1.1,0,5.2-0.2,5.2-6.4c0-3.6-1.6-6.4-5.2-6.4c-4.7,0-5.2,4.8-5.2,6.4
					C119.5,72.9,120.2,76.9,124.6,76.9z"/>
				<path class="st3" d="M136.6,62.8v9.2c0,1.9,0.1,5,4,5c3.1,0,4-1.7,4-5v-9.2h2.1v9.4c0,6.3-4.4,6.4-6.1,6.4
					c-5.6,0-6.1-3.8-6.1-6.4v-9.4H136.6z"/>
				<path class="st3" d="M77.4,108.2h-2.1V92.8h2.3l8.2,12.2V92.8h2.1v15.4h-2.3l-8.2-12.2V108.2z"/>
				<path class="st3" d="M98.1,92.3c3.4,0,7.4,1.9,7.4,8.2c0,8.1-6.4,8.2-7.4,8.2c-1,0-7.4-0.1-7.4-8.2
					C90.7,95.1,93.8,92.3,98.1,92.3z M98.1,106.9c1.1,0,5.2-0.2,5.2-6.4c0-3.6-1.6-6.4-5.2-6.4c-4.7,0-5.2,4.8-5.2,6.4
					C92.9,102.9,93.7,106.9,98.1,106.9z"/>
				<path class="st3" d="M112.3,108.2h-2.6l-4.1-15.4h2.3l3.2,12.9l3.2-12.9h2.4l3.2,12.9l3.2-12.9h2.3l-4.1,15.4h-2.6l-3.2-13
					L112.3,108.2z"/>
			</g>
		</g>
	</g>
</g>
</svg>
