<?xml version="1.0" encoding="utf-8"?>
<!-- Generator: Adobe Illustrator 21.1.0, SVG Export Plug-In . SVG Version: 6.00 Build 0)  -->
<svg version="1.1" xmlns="http://www.w3.org/2000/svg" xmlns:xlink="http://www.w3.org/1999/xlink" x="0px" y="0px"
	 viewBox="0 0 200 200" style="enable-background:new 0 0 200 200;" xml:space="preserve">
<style type="text/css">
	.st0{fill:url(#SVGID_1_);}
	.st1{opacity:0.75;}
	.st2{fill:#242062;}
	.st3{fill:#CDD4EC;}
</style>
<g id="Layer_2">
</g>
<g id="Layer_1">
	<g>
		
			<radialGradient id="SVGID_1_" cx="97.5564" cy="341.0226" r="122.3181" gradientTransform="matrix(1 0 0 1 0 -228)" gradientUnits="userSpaceOnUse">
			<stop  offset="0" style="stop-color:#2A3492"/>
			<stop  offset="0.8587" style="stop-color:#2A3492;stop-opacity:0.1413"/>
			<stop  offset="1" style="stop-color:#2A3492;stop-opacity:0"/>
		</radialGradient>
		<polygon class="st0" points="99,-0.3 -0.1,171.2 198,171.2 		"/>
	</g>
	<g>
		<g class="st1">
			<path class="st2" d="M70.1,80.1L70.1,80.1v0.8v17.7h-3v-22h4.4l6.9,18.1l6.9-18.1h4.4v22h-3V80.9l0.1-0.8h-0.1l-7.1,18.5h-2.4
				L70.1,80.1z"/>
			<path class="st2" d="M100.8,82.7c3.4,0,7.4,1.9,7.4,8.2c0,8.1-6.4,8.2-7.4,8.2c-1,0-7.4-0.1-7.4-8.2
				C93.5,85.5,96.5,82.7,100.8,82.7z M100.8,97.3c1.1,0,5.2-0.2,5.2-6.4c0-3.6-1.6-6.4-5.2-6.4c-4.7,0-5.2,4.8-5.2,6.4
				C95.7,93.4,96.4,97.3,100.8,97.3z"/>
			<path class="st2" d="M112.2,93.7c-0.1,2,1.6,3.6,4.4,3.6c2.7,0,3.8-1.4,3.8-2.9c0-1.9-1.7-2.4-3.1-2.7c-3.5-0.8-6.6-1.1-6.6-4.6
				c0-2.9,2.4-4.4,5.8-4.4c3.8,0,5.5,2.1,5.7,4.5h-2.1c-0.3-2.6-2.7-2.7-3.7-2.7c-2.1,0-3.6,1-3.6,2.6c0,1.9,1.8,2.2,3.9,2.6
				c2.8,0.5,5.9,1.1,5.9,4.8c0,4.6-4.8,4.6-6.1,4.6c-2.2,0-6.1-0.5-6.4-5.4H112.2z"/>
			<path class="st2" d="M123.9,84.9v-1.7H136v1.7h-5v13.7h-2.1V84.9H123.9z"/>
			<path class="st2" d="M79.4,128.6h-9.9v-15.4h2.1v13.7h7.8V128.6z"/>
			<path class="st2" d="M83.2,113.2v15.4h-2.1v-15.4H83.2z"/>
			<path class="st2" d="M96.7,113.2h2.8l-6.4,6.3l6.8,9.1h-2.8l-5.6-7.7l-2.5,2.4v5.3H87v-15.4H89v7.6L96.7,113.2z"/>
			<path class="st2" d="M111.8,119.8v1.7h-8.1v5.4h9.2v1.7h-11.2v-15.4h11v1.7h-8.9v4.8H111.8z"/>
			<path class="st2" d="M125,128.6h-9.9v-15.4h2.1v13.7h7.8V128.6z"/>
			<path class="st2" d="M132.4,113.2h2.5l-5.7,9v6.4h-2.1v-6.4l-5.7-9h2.5l4.3,7.1L132.4,113.2z"/>
		</g>
		<g>
			<g>
				<path class="st3" d="M68.7,78.7L68.7,78.7v0.8v17.7h-3v-22h4.4l6.9,18.1l6.9-18.1h4.4v22h-3V79.5l0.1-0.8h-0.1l-7.1,18.5h-2.4
					L68.7,78.7z"/>
				<path class="st3" d="M99.4,81.3c3.4,0,7.4,1.9,7.4,8.2c0,8.1-6.4,8.2-7.4,8.2c-1,0-7.4-0.1-7.4-8.2
					C92.1,84.1,95.1,81.3,99.4,81.3z M99.4,95.9c1.1,0,5.2-0.2,5.2-6.4c0-3.6-1.6-6.4-5.2-6.4c-4.7,0-5.2,4.8-5.2,6.4
					C94.3,91.9,95,95.9,99.4,95.9z"/>
				<path class="st3" d="M110.8,92.3c-0.1,2,1.6,3.6,4.4,3.6c2.7,0,3.8-1.4,3.8-2.9c0-1.9-1.7-2.4-3.1-2.7c-3.5-0.8-6.6-1.1-6.6-4.6
					c0-2.9,2.4-4.4,5.8-4.4c3.8,0,5.5,2.1,5.7,4.5h-2.1c-0.3-2.6-2.7-2.7-3.7-2.7c-2.1,0-3.6,1-3.6,2.6c0,1.9,1.8,2.2,3.9,2.6
					c2.8,0.5,5.9,1.1,5.9,4.8c0,4.6-4.8,4.6-6.1,4.6c-2.2,0-6.1-0.5-6.4-5.4H110.8z"/>
				<path class="st3" d="M122.5,83.5v-1.7h12.1v1.7h-5v13.7h-2.1V83.5H122.5z"/>
				<path class="st3" d="M78,127.2h-9.9v-15.4h2.1v13.7H78V127.2z"/>
				<path class="st3" d="M81.8,111.8v15.4h-2.1v-15.4H81.8z"/>
				<path class="st3" d="M95.2,111.8H98l-6.4,6.3l6.8,9.1h-2.8l-5.6-7.7l-2.5,2.4v5.3h-2.1v-15.4h2.1v7.6L95.2,111.8z"/>
				<path class="st3" d="M110.4,118.3v1.7h-8.1v5.4h9.2v1.7h-11.2v-15.4h11v1.7h-8.9v4.8H110.4z"/>
				<path class="st3" d="M123.6,127.2h-9.9v-15.4h2.1v13.7h7.8V127.2z"/>
				<path class="st3" d="M131,111.8h2.5l-5.7,9v6.4h-2.1v-6.4l-5.7-9h2.5l4.3,7.1L131,111.8z"/>
			</g>
		</g>
	</g>
</g>
</svg>
