<?xml version="1.0" encoding="utf-8"?>
<!-- Generator: Adobe Illustrator 21.1.0, SVG Export Plug-In . SVG Version: 6.00 Build 0)  -->
<svg version="1.1" xmlns="http://www.w3.org/2000/svg" xmlns:xlink="http://www.w3.org/1999/xlink" x="0px" y="0px"
	 viewBox="0 0 200 200" style="enable-background:new 0 0 200 200;" xml:space="preserve">
<style type="text/css">
	.st0{fill:url(#SVGID_1_);}
	.st1{opacity:0.75;}
	.st2{fill:#242062;}
	.st3{fill:#CDD4EC;}
</style>
<g id="Layer_2">
</g>
<g id="Layer_1">
	<g>
		
			<radialGradient id="SVGID_1_" cx="100.7453" cy="273.0226" r="122.3181" gradientTransform="matrix(-1 0 0 -1 200.9231 346.0569)" gradientUnits="userSpaceOnUse">
			<stop  offset="0" style="stop-color:#2A3492"/>
			<stop  offset="0.8587" style="stop-color:#2A3492;stop-opacity:0.1413"/>
			<stop  offset="1" style="stop-color:#2A3492;stop-opacity:0"/>
		</radialGradient>
		<polygon class="st0" points="98.8,186.4 197.8,14.9 -0.3,14.9 		"/>
	</g>
	<g>
		<g class="st1">
			<path class="st2" d="M65.8,34.6h3.5l-8.1,12.8v9.2h-3v-9.2L50,34.6h3.5l6.1,10.2L65.8,34.6z"/>
			<path class="st2" d="M75.2,40.7c3.4,0,7.4,1.9,7.4,8.2c0,8.1-6.4,8.2-7.4,8.2c-1,0-7.4-0.1-7.4-8.2
				C67.8,43.5,70.9,40.7,75.2,40.7z M75.2,55.3c1.1,0,5.2-0.2,5.2-6.4c0-3.6-1.6-6.4-5.2-6.4c-4.7,0-5.2,4.8-5.2,6.4
				C70,51.4,70.8,55.3,75.2,55.3z"/>
			<path class="st2" d="M87.2,41.2v9.2c0,1.9,0.1,5,4,5c3.1,0,4-1.7,4-5v-9.2h2.1v9.4c0,6.3-4.4,6.4-6.1,6.4c-5.6,0-6.1-3.8-6.1-6.4
				v-9.4H87.2z"/>
			<path class="st2" d="M110.1,43.6L110.1,43.6v0.6v12.4H108V41.2h3.1l4.8,12.7l4.8-12.7h3.1v15.4h-2.1V44.2l0-0.6h-0.1l-5,12.9
				h-1.7L110.1,43.6z"/>
			<path class="st2" d="M127.9,56.6h-2.2l5.8-15.4h2.2l5.8,15.4h-2.2l-1.5-4h-6.5L127.9,56.6z M135.3,50.9l-2.7-7.6l-2.7,7.6H135.3z
				"/>
			<path class="st2" d="M147.9,41.2h2.5l-5.7,9v6.4h-2.1v-6.4l-5.7-9h2.5l4.3,7.1L147.9,41.2z"/>
			<path class="st2" d="M78.3,71.2h6.8c1.7,0,5.1,0.2,5.1,4.1c0,1.8-1,3.5-2.6,3.8v0.1c2.1,0.8,2.2,2.1,2.2,3.7
				c0.1,2.1,0,2.8,0.6,3.7h-2.2c-0.5-0.7-0.6-1.3-0.6-3.3c0-1.6-0.2-3.3-2.9-3.3h-4.4v6.5h-2.1V71.2z M80.3,78.3H85c1,0,3-0.4,3-2.8
				c0-2-1.4-2.6-3.3-2.6h-4.3V78.3z"/>
			<path class="st2" d="M103.4,77.8v1.7h-8.1v5.4h9.2v1.7H93.3V71.2h11v1.7h-8.9v4.8H103.4z"/>
			<path class="st2" d="M116.7,86.6h-9.9V71.2h2.1v13.7h7.8V86.6z"/>
			<path class="st2" d="M124,71.2h2.5l-5.7,9v6.4h-2.1v-6.4l-5.7-9h2.5l4.3,7.1L124,71.2z"/>
			<path class="st2" d="M79.5,100.7c3.4,0,7.4,1.9,7.4,8.2c0,8.1-6.4,8.2-7.4,8.2c-1,0-7.4-0.1-7.4-8.2
				C72.2,103.5,75.2,100.7,79.5,100.7z M79.5,115.3c1.1,0,5.2-0.2,5.2-6.4c0-3.6-1.6-6.4-5.2-6.4c-4.7,0-5.2,4.8-5.2,6.4
				C74.4,111.4,75.1,115.3,79.5,115.3z"/>
			<path class="st2" d="M91.8,116.6h-2.1v-15.4H92l8.2,12.2v-12.2h2.1v15.4H100l-8.2-12.2V116.6z"/>
			<path class="st2" d="M115.4,101.2v15.4h-2.1v-15.4H115.4z"/>
			<path class="st2" d="M117.6,102.9v-1.7h12.1v1.7h-5v13.7h-2.1v-13.7H117.6z"/>
		</g>
		<g>
			<g>
				<path class="st3" d="M64.4,33.1h3.5L59.8,46v9.2h-3V46l-8.2-12.8h3.5l6.1,10.2L64.4,33.1z"/>
				<path class="st3" d="M73.7,39.3c3.4,0,7.4,1.9,7.4,8.2c0,8.1-6.4,8.2-7.4,8.2c-1,0-7.4-0.1-7.4-8.2
					C66.4,42.1,69.5,39.3,73.7,39.3z M73.7,53.9c1.1,0,5.2-0.2,5.2-6.4c0-3.6-1.6-6.4-5.2-6.4c-4.7,0-5.2,4.8-5.2,6.4
					C68.6,49.9,69.3,53.9,73.7,53.9z"/>
				<path class="st3" d="M85.8,39.8v9.2c0,1.9,0.1,5,4,5c3.1,0,4-1.7,4-5v-9.2h2.1v9.4c0,6.3-4.4,6.4-6.1,6.4
					c-5.6,0-6.1-3.8-6.1-6.4v-9.4H85.8z"/>
				<path class="st3" d="M108.7,42.2L108.7,42.2v0.6v12.4h-2.1V39.8h3.1l4.8,12.7l4.8-12.7h3.1v15.4h-2.1V42.8l0-0.6h-0.1l-5,12.9
					h-1.7L108.7,42.2z"/>
				<path class="st3" d="M126.5,55.2h-2.2l5.8-15.4h2.2l5.8,15.4h-2.2l-1.5-4h-6.5L126.5,55.2z M133.9,49.4l-2.7-7.6l-2.7,7.6H133.9
					z"/>
				<path class="st3" d="M146.4,39.8h2.5l-5.7,9v6.4h-2.1v-6.4l-5.7-9h2.5l4.3,7.1L146.4,39.8z"/>
				<path class="st3" d="M76.9,69.8h6.8c1.7,0,5.1,0.2,5.1,4.1c0,1.8-1,3.5-2.6,3.8v0.1c2.1,0.8,2.2,2.1,2.2,3.7
					c0.1,2.1,0,2.8,0.6,3.7h-2.2c-0.5-0.7-0.6-1.3-0.6-3.3c0-1.6-0.2-3.3-2.9-3.3h-4.4v6.5h-2.1V69.8z M78.9,76.9h4.6
					c1,0,3-0.4,3-2.8c0-2-1.4-2.6-3.3-2.6h-4.3V76.9z"/>
				<path class="st3" d="M102,76.3v1.7h-8.1v5.4h9.2v1.7H91.8V69.8h11v1.7h-8.9v4.8H102z"/>
				<path class="st3" d="M115.2,85.2h-9.9V69.8h2.1v13.7h7.8V85.2z"/>
				<path class="st3" d="M122.6,69.8h2.5l-5.7,9v6.4h-2.1v-6.4l-5.7-9h2.5l4.3,7.1L122.6,69.8z"/>
				<path class="st3" d="M78.1,99.3c3.4,0,7.4,1.9,7.4,8.2c0,8.1-6.4,8.2-7.4,8.2c-1,0-7.4-0.1-7.4-8.2
					C70.7,102.1,73.8,99.3,78.1,99.3z M78.1,113.9c1.1,0,5.2-0.2,5.2-6.4c0-3.6-1.6-6.4-5.2-6.4c-4.7,0-5.2,4.8-5.2,6.4
					C72.9,109.9,73.7,113.9,78.1,113.9z"/>
				<path class="st3" d="M90.4,115.2h-2.1V99.8h2.3l8.2,12.2V99.8h2.1v15.4h-2.3l-8.2-12.2V115.2z"/>
				<path class="st3" d="M114,99.8v15.4h-2.1V99.8H114z"/>
				<path class="st3" d="M116.2,101.5v-1.7h12.1v1.7h-5v13.7h-2.1v-13.7H116.2z"/>
			</g>
		</g>
	</g>
</g>
</svg>
