<?xml version="1.0" encoding="utf-8"?>
<!-- Generator: Adobe Illustrator 21.1.0, SVG Export Plug-In . SVG Version: 6.00 Build 0)  -->
<svg version="1.1" xmlns="http://www.w3.org/2000/svg" xmlns:xlink="http://www.w3.org/1999/xlink" x="0px" y="0px"
	 viewBox="0 0 200 200" style="enable-background:new 0 0 200 200;" xml:space="preserve">
<style type="text/css">
	.st0{fill:url(#SVGID_1_);}
	.st1{opacity:0.75;}
	.st2{fill:#242062;}
	.st3{fill:#CDD4EC;}
</style>
<g id="Layer_2">
</g>
<g id="Layer_1">
	<g>
		
			<radialGradient id="SVGID_1_" cx="101.5564" cy="501.0226" r="122.3181" gradientTransform="matrix(-1 0 0 -1 201.923 574.0569)" gradientUnits="userSpaceOnUse">
			<stop  offset="0" style="stop-color:#2A3492"/>
			<stop  offset="0.8587" style="stop-color:#2A3492;stop-opacity:0.1413"/>
			<stop  offset="1" style="stop-color:#2A3492;stop-opacity:0"/>
		</radialGradient>
		<polygon class="st0" points="99,186.4 198,14.9 -0.1,14.9 		"/>
	</g>
	<g>
		<g class="st1">
			<path class="st2" d="M45,44.1c-0.4,2.8-2,7.1-8.3,7.1c-5.8,0-9.3-3.8-9.3-10.1c0-10.4,7.6-10.7,9.2-10.7c6.2,0,7.8,3.6,8.1,6.6
				h-2.6c-0.1-1.4-1-4.4-5.5-4.4c-4.9,0-6.4,4.1-6.4,8.4c0,4.6,2.5,8,6.6,8c3.1,0,5.4-2.1,5.5-4.9H45z"/>
			<path class="st2" d="M53.5,36.4c3,0,6.5,1.7,6.5,7.3c0,7.2-5.7,7.3-6.5,7.3c-0.9,0-6.5-0.1-6.5-7.3
				C46.9,38.9,49.7,36.4,53.5,36.4z M53.5,49.4c0.9,0,4.6-0.2,4.6-5.7c0-3.2-1.4-5.7-4.6-5.7c-4.2,0-4.6,4.2-4.6,5.7
				C48.9,45.9,49.6,49.4,53.5,49.4z"/>
			<path class="st2" d="M64.4,50.6h-1.8V36.9h2l7.3,10.9V36.9h1.8v13.7h-2l-7.3-10.9V50.6z"/>
			<path class="st2" d="M88.6,46c-0.3,2-1.4,5-5.8,5c-4.1,0-6.5-2.6-6.5-7c0-7.3,5.3-7.5,6.5-7.5c4.4,0,5.5,2.5,5.7,4.6h-1.8
				c-0.1-1-0.7-3.1-3.8-3.1c-3.4,0-4.5,2.9-4.5,5.9c0,3.2,1.7,5.6,4.6,5.6c2.2,0,3.8-1.5,3.9-3.4H88.6z"/>
			<path class="st2" d="M100.1,42.7v1.5h-7.2V49h8.2v1.5H91V36.9h9.8v1.5h-7.9v4.3H100.1z"/>
			<path class="st2" d="M104.9,50.6H103V36.9h2l7.3,10.9V36.9h1.8v13.7h-2l-7.3-10.9V50.6z"/>
			<path class="st2" d="M116.1,38.4v-1.5h10.8v1.5h-4.5v12.2h-1.8V38.4H116.1z"/>
			<path class="st2" d="M128.8,36.9h6.1c1.5,0,4.5,0.2,4.5,3.7c0,1.6-0.9,3.1-2.4,3.4V44c1.8,0.7,1.9,1.9,2,3.3
				c0.1,1.9,0,2.5,0.5,3.3h-1.9c-0.5-0.6-0.5-1.1-0.5-2.9c0-1.4-0.1-2.9-2.6-2.9h-3.9v5.8h-1.8V36.9z M130.7,43.2h4.1
				c0.9,0,2.7-0.4,2.7-2.5c0-1.8-1.3-2.3-3-2.3h-3.8V43.2z"/>
			<path class="st2" d="M142.4,50.6h-2l5.2-13.7h2l5.2,13.7h-2l-1.3-3.5h-5.8L142.4,50.6z M149,45.5l-2.4-6.8l-2.4,6.8H149z"/>
			<path class="st2" d="M151.6,38.4v-1.5h10.8v1.5h-4.5v12.2h-1.8V38.4H151.6z"/>
			<path class="st2" d="M173.3,42.7v1.5h-7.2V49h8.2v1.5h-10V36.9h9.8v1.5h-7.9v4.3H173.3z"/>
			<path class="st2" d="M59.6,80.6h-2l5.2-13.7h2l5.2,13.7h-2L66.7,77h-5.8L59.6,80.6z M66.2,75.5l-2.4-6.8l-2.4,6.8H66.2z"/>
			<path class="st2" d="M73.4,80.6h-1.8V66.9h2l7.3,10.9V66.9h1.8v13.7h-2l-7.3-10.9V80.6z"/>
			<path class="st2" d="M91.1,66.9c1.4,0,6.5,0.2,6.5,6.8c0,6.7-4.9,6.9-7.2,6.9H86V66.9H91.1z M87.9,79h2.6c3.5,0,5.2-1.6,5.2-5.3
				c0-4.2-2.3-5.3-4.7-5.3h-3.1V79z"/>
			<path class="st2" d="M106.9,80.6h-2l5.2-13.7h2l5.2,13.7h-2L114,77h-5.8L106.9,80.6z M113.5,75.5l-2.4-6.8l-2.4,6.8H113.5z"/>
			<path class="st2" d="M119.9,76.2c-0.1,1.8,1.4,3.2,3.9,3.2c2.4,0,3.4-1.2,3.4-2.5c0-1.7-1.5-2.1-2.8-2.4
				c-3.1-0.7-5.9-0.9-5.9-4.1c0-2.6,2.1-3.9,5.2-3.9c3.4,0,4.9,1.9,5.1,4h-1.8c-0.3-2.3-2.4-2.4-3.3-2.4c-1.9,0-3.2,0.9-3.2,2.3
				c0,1.7,1.6,1.9,3.4,2.3c2.5,0.5,5.2,1,5.2,4.3c0,4.1-4.3,4.1-5.4,4.1c-2,0-5.5-0.4-5.7-4.8H119.9z"/>
			<path class="st2" d="M140.3,66.9h2.5l-5.7,5.6l6.1,8.1h-2.5l-5-6.8l-2.2,2.1v4.7h-1.8V66.9h1.8v6.8L140.3,66.9z"/>
			<path class="st2" d="M73,110.6h-2l5.2-13.7h2l5.2,13.7h-2l-1.3-3.5h-5.8L73,110.6z M79.6,105.5l-2.4-6.8l-2.4,6.8H79.6z"/>
			<path class="st2" d="M96.7,103.4v7.2h-1.4v-2.2h0c-0.8,1.6-2.4,2.6-4.6,2.6c-3.3,0-6.5-1.9-6.5-7.4c0-4.6,2.6-7.1,6.7-7.1
				c3.7,0,5.3,2.2,5.6,4.5h-1.8c-0.1-1.3-0.9-2.9-3.8-2.9c-4.3,0-4.7,4.2-4.7,5.6c0,1,0.3,5.8,4.7,5.8c3.4,0,4.2-2.8,4.2-4.5h-3.9
				v-1.5H96.7z"/>
			<path class="st2" d="M99.7,110.6h-2l5.2-13.7h2l5.2,13.7h-2l-1.3-3.5H101L99.7,110.6z M106.3,105.5l-2.4-6.8l-2.4,6.8H106.3z"/>
			<path class="st2" d="M113.5,96.9v13.7h-1.8V96.9H113.5z"/>
			<path class="st2" d="M118.7,110.6h-1.8V96.9h2l7.3,10.9V96.9h1.8v13.7h-2l-7.3-10.9V110.6z"/>
		</g>
		<g>
			<g>
				<path class="st3" d="M43.6,42.7c-0.4,2.8-2,7.1-8.3,7.1c-5.8,0-9.3-3.8-9.3-10.1C26,29.3,33.6,29,35.2,29c6.2,0,7.8,3.6,8.1,6.6
					h-2.6c-0.1-1.4-1-4.4-5.5-4.4c-4.9,0-6.4,4.1-6.4,8.4c0,4.6,2.5,8,6.6,8c3.1,0,5.4-2.1,5.5-4.9H43.6z"/>
				<path class="st3" d="M52.1,35c3,0,6.5,1.7,6.5,7.3c0,7.2-5.7,7.3-6.5,7.3c-0.9,0-6.5-0.1-6.5-7.3C45.5,37.5,48.2,35,52.1,35z
					 M52.1,48c0.9,0,4.6-0.2,4.6-5.7c0-3.2-1.4-5.7-4.6-5.7c-4.2,0-4.6,4.2-4.6,5.7C47.5,44.5,48.2,48,52.1,48z"/>
				<path class="st3" d="M63,49.2h-1.8V35.4h2l7.3,10.9V35.4h1.8v13.7h-2L63,38.3V49.2z"/>
				<path class="st3" d="M87.2,44.6c-0.3,2-1.4,5-5.8,5c-4.1,0-6.5-2.6-6.5-7c0-7.3,5.3-7.5,6.5-7.5c4.4,0,5.5,2.5,5.7,4.6h-1.8
					c-0.1-1-0.7-3.1-3.8-3.1c-3.4,0-4.5,2.9-4.5,5.9c0,3.2,1.7,5.6,4.6,5.6c2.2,0,3.8-1.5,3.9-3.4H87.2z"/>
				<path class="st3" d="M98.7,41.3v1.5h-7.2v4.8h8.2v1.5h-10V35.4h9.8V37h-7.9v4.3H98.7z"/>
				<path class="st3" d="M103.5,49.2h-1.8V35.4h2l7.3,10.9V35.4h1.8v13.7h-2l-7.3-10.9V49.2z"/>
				<path class="st3" d="M114.7,37v-1.5h10.8V37H121v12.2h-1.8V37H114.7z"/>
				<path class="st3" d="M127.4,35.4h6.1c1.5,0,4.5,0.2,4.5,3.7c0,1.6-0.9,3.1-2.4,3.4v0.1c1.8,0.7,1.9,1.9,2,3.3
					c0.1,1.9,0,2.5,0.5,3.3h-1.9c-0.5-0.6-0.5-1.1-0.5-2.9c0-1.4-0.1-2.9-2.6-2.9h-3.9v5.8h-1.8V35.4z M129.2,41.8h4.1
					c0.9,0,2.7-0.4,2.7-2.5c0-1.8-1.3-2.3-3-2.3h-3.8V41.8z"/>
				<path class="st3" d="M141,49.2h-2l5.2-13.7h2l5.2,13.7h-2l-1.3-3.5h-5.8L141,49.2z M147.6,44.1l-2.4-6.8l-2.4,6.8H147.6z"/>
				<path class="st3" d="M150.2,37v-1.5H161V37h-4.5v12.2h-1.8V37H150.2z"/>
				<path class="st3" d="M171.9,41.3v1.5h-7.2v4.8h8.2v1.5h-10V35.4h9.8V37h-7.9v4.3H171.9z"/>
				<path class="st3" d="M58.1,79.2h-2l5.2-13.7h2l5.2,13.7h-2l-1.3-3.5h-5.8L58.1,79.2z M64.7,74.1l-2.4-6.8L60,74.1H64.7z"/>
				<path class="st3" d="M71.9,79.2h-1.8V65.4h2l7.3,10.9V65.4h1.8v13.7h-2l-7.3-10.9V79.2z"/>
				<path class="st3" d="M89.6,65.4c1.4,0,6.5,0.2,6.5,6.8c0,6.7-4.9,6.9-7.2,6.9h-4.4V65.4H89.6z M86.4,77.6H89
					c3.5,0,5.2-1.6,5.2-5.3c0-4.2-2.3-5.3-4.7-5.3h-3.1V77.6z"/>
				<path class="st3" d="M105.5,79.2h-2l5.2-13.7h2l5.2,13.7h-2l-1.3-3.5h-5.8L105.5,79.2z M112,74.1l-2.4-6.8l-2.4,6.8H112z"/>
				<path class="st3" d="M118.5,74.8c-0.1,1.8,1.4,3.2,3.9,3.2c2.4,0,3.4-1.2,3.4-2.5c0-1.7-1.5-2.1-2.8-2.4
					c-3.1-0.7-5.9-0.9-5.9-4.1c0-2.6,2.1-3.9,5.2-3.9c3.4,0,4.9,1.9,5.1,4h-1.8c-0.3-2.3-2.4-2.4-3.3-2.4c-1.9,0-3.2,0.9-3.2,2.3
					c0,1.7,1.6,1.9,3.4,2.3c2.5,0.5,5.2,1,5.2,4.3c0,4.1-4.3,4.1-5.4,4.1c-2,0-5.5-0.4-5.7-4.8H118.5z"/>
				<path class="st3" d="M138.9,65.4h2.5l-5.7,5.6l6.1,8.1h-2.5l-5-6.8l-2.2,2.1v4.7h-1.8V65.4h1.8v6.8L138.9,65.4z"/>
				<path class="st3" d="M71.6,109.2h-2l5.2-13.7h2l5.2,13.7h-2l-1.3-3.5h-5.8L71.6,109.2z M78.2,104.1l-2.4-6.8l-2.4,6.8H78.2z"/>
				<path class="st3" d="M95.2,102v7.2h-1.4v-2.2h0c-0.8,1.6-2.4,2.6-4.6,2.6c-3.3,0-6.5-1.9-6.5-7.4c0-4.6,2.6-7.1,6.7-7.1
					c3.7,0,5.3,2.2,5.6,4.5h-1.8c-0.1-1.3-0.9-2.9-3.8-2.9c-4.3,0-4.7,4.2-4.7,5.6c0,1,0.3,5.8,4.7,5.8c3.4,0,4.2-2.8,4.2-4.5h-3.9
					V102H95.2z"/>
				<path class="st3" d="M98.3,109.2h-2l5.2-13.7h2l5.2,13.7h-2l-1.3-3.5h-5.8L98.3,109.2z M104.9,104.1l-2.4-6.8l-2.4,6.8H104.9z"
					/>
				<path class="st3" d="M112.1,95.4v13.7h-1.8V95.4H112.1z"/>
				<path class="st3" d="M117.2,109.2h-1.8V95.4h2l7.3,10.9V95.4h1.8v13.7h-2l-7.3-10.9V109.2z"/>
			</g>
		</g>
	</g>
</g>
</svg>
