<?xml version="1.0" encoding="utf-8"?>
<!-- Generator: Adobe Illustrator 21.1.0, SVG Export Plug-In . SVG Version: 6.00 Build 0)  -->
<svg version="1.1" xmlns="http://www.w3.org/2000/svg" xmlns:xlink="http://www.w3.org/1999/xlink" x="0px" y="0px"
	 viewBox="0 0 200 200" style="enable-background:new 0 0 200 200;" xml:space="preserve">
<style type="text/css">
	.st0{fill:url(#SVGID_1_);}
	.st1{opacity:0.75;}
	.st2{fill:#242062;}
	.st3{fill:#CDD4EC;}
</style>
<g id="Layer_2">
</g>
<g id="Layer_1">
	<g>
		
			<radialGradient id="SVGID_1_" cx="101.5565" cy="387.0226" r="122.3181" gradientTransform="matrix(-1 0 0 -1 201.923 460.0569)" gradientUnits="userSpaceOnUse">
			<stop  offset="0" style="stop-color:#2A3492"/>
			<stop  offset="0.8587" style="stop-color:#2A3492;stop-opacity:0.1413"/>
			<stop  offset="1" style="stop-color:#2A3492;stop-opacity:0"/>
		</radialGradient>
		<polygon class="st0" points="99,186.4 198,14.9 -0.1,14.9 		"/>
	</g>
	<g>
		<g class="st1">
			<path class="st2" d="M68,49.6c-0.1,2.9,2.3,5.2,6.3,5.2c3.9,0,5.4-2,5.4-4.1c0-2.7-2.4-3.4-4.4-3.9c-5-1.1-9.5-1.5-9.5-6.6
				c0-4.2,3.4-6.3,8.3-6.3c5.4,0,7.9,3,8.1,6.4h-3c-0.4-3.6-3.9-3.9-5.3-3.9c-3.1,0-5.1,1.4-5.1,3.7c0,2.7,2.6,3.1,5.5,3.7
				c3.9,0.8,8.4,1.6,8.4,6.9c0,6.6-6.9,6.6-8.7,6.6c-3.1,0-8.7-0.7-9.1-7.6H68z"/>
			<path class="st2" d="M88.2,41.2v15.4h-2.1V41.2H88.2z"/>
			<path class="st2" d="M105.1,48.5v8h-1.6v-2.5h0c-0.9,1.8-2.7,3-5.1,3c-3.7,0-7.2-2.1-7.2-8.3c0-5.2,3-8,7.5-8c4.1,0,6,2.5,6.3,5
				h-2.1c-0.1-1.4-1.1-3.3-4.2-3.3c-4.9,0-5.3,4.7-5.3,6.3c0,1.1,0.3,6.5,5.3,6.5c3.8,0,4.7-3.1,4.7-5h-4.4v-1.7H105.1z"/>
			<path class="st2" d="M110.3,56.6h-2.1V41.2h2.3l8.2,12.2V41.2h2.1v15.4h-2.3l-8.2-12.2V56.6z"/>
			<path class="st2" d="M125.7,51.7c-0.1,2,1.6,3.6,4.4,3.6c2.7,0,3.8-1.4,3.8-2.9c0-1.9-1.7-2.4-3.1-2.7c-3.5-0.8-6.6-1.1-6.6-4.6
				c0-2.9,2.4-4.4,5.8-4.4c3.8,0,5.5,2.1,5.7,4.5h-2.1c-0.3-2.6-2.7-2.7-3.7-2.7c-2.1,0-3.6,1-3.6,2.6c0,1.9,1.8,2.2,3.9,2.6
				c2.8,0.5,5.9,1.1,5.9,4.8c0,4.6-4.8,4.6-6.1,4.6c-2.2,0-6.1-0.5-6.4-5.4H125.7z"/>
			<path class="st2" d="M58,71.2c3.1,0,5.2,1.2,5.2,4.4c0,2.9-1.4,4.8-5.4,4.8h-4v6.1h-2.1V71.2H58z M53.8,78.7h3.8
				c2.5,0,3.5-1,3.5-3.1c0-1.9-1.1-2.7-3.5-2.7h-3.8V78.7z"/>
			<path class="st2" d="M72.2,70.7c3.4,0,7.4,1.9,7.4,8.2c0,8.1-6.4,8.2-7.4,8.2c-1,0-7.4-0.1-7.4-8.2
				C64.9,73.5,67.9,70.7,72.2,70.7z M72.2,85.3c1.1,0,5.2-0.2,5.2-6.4c0-3.6-1.6-6.4-5.2-6.4c-4.7,0-5.2,4.8-5.2,6.4
				C67.1,81.4,67.8,85.3,72.2,85.3z"/>
			<path class="st2" d="M84.5,71.2v15.4h-2.1V71.2H84.5z"/>
			<path class="st2" d="M90.3,86.6h-2.1V71.2h2.3l8.2,12.2V71.2h2.1v15.4h-2.3l-8.2-12.2V86.6z"/>
			<path class="st2" d="M103,72.9v-1.7h12.1v1.7h-5v13.7H108V72.9H103z"/>
			<path class="st2" d="M123,72.9v-1.7h12.1v1.7h-5v13.7H128V72.9H123z"/>
			<path class="st2" d="M142.6,70.7c3.4,0,7.4,1.9,7.4,8.2c0,8.1-6.4,8.2-7.4,8.2c-1,0-7.4-0.1-7.4-8.2
				C135.2,73.5,138.3,70.7,142.6,70.7z M142.6,85.3c1.1,0,5.2-0.2,5.2-6.4c0-3.6-1.6-6.4-5.2-6.4c-4.7,0-5.2,4.8-5.2,6.4
				C137.4,81.4,138.2,85.3,142.6,85.3z"/>
			<path class="st2" d="M90.7,101.2h2.5l-5.7,9v6.4h-2.1v-6.4l-5.7-9h2.5l4.3,7.1L90.7,101.2z"/>
			<path class="st2" d="M103.4,107.8v1.7h-8.1v5.4h9.2v1.7H93.3v-15.4h11v1.7h-8.9v4.8H103.4z"/>
			<path class="st2" d="M107.9,111.7c-0.1,2,1.6,3.6,4.4,3.6c2.7,0,3.8-1.4,3.8-2.9c0-1.9-1.7-2.4-3.1-2.7c-3.5-0.8-6.6-1.1-6.6-4.6
				c0-2.9,2.4-4.4,5.8-4.4c3.8,0,5.5,2.1,5.7,4.5h-2.1c-0.3-2.6-2.7-2.7-3.7-2.7c-2.1,0-3.6,1-3.6,2.6c0,1.9,1.8,2.2,3.9,2.6
				c2.8,0.5,5.9,1.1,5.9,4.8c0,4.6-4.8,4.6-6.1,4.6c-2.2,0-6.1-0.5-6.4-5.3H107.9z"/>
		</g>
		<g>
			<g>
				<path class="st3" d="M66.6,48.2c-0.1,2.9,2.3,5.2,6.3,5.2c3.9,0,5.4-2,5.4-4.1c0-2.7-2.4-3.4-4.4-3.9c-5-1.1-9.5-1.5-9.5-6.6
					c0-4.2,3.4-6.3,8.3-6.3c5.4,0,7.9,3,8.1,6.4h-3C77.5,35.2,74,35,72.6,35c-3.1,0-5.1,1.4-5.1,3.7c0,2.7,2.6,3.1,5.5,3.7
					c3.9,0.8,8.4,1.6,8.4,6.9c0,6.6-6.9,6.6-8.7,6.6c-3.1,0-8.7-0.7-9.1-7.6H66.6z"/>
				<path class="st3" d="M86.8,39.8v15.4h-2.1V39.8H86.8z"/>
				<path class="st3" d="M103.7,47.1v8h-1.6v-2.5h0c-0.9,1.8-2.7,3-5.1,3c-3.7,0-7.2-2.1-7.2-8.3c0-5.2,3-8,7.5-8c4.1,0,6,2.5,6.3,5
					h-2.1c-0.1-1.4-1.1-3.3-4.2-3.3c-4.9,0-5.3,4.7-5.3,6.3c0,1.1,0.3,6.5,5.3,6.5c3.8,0,4.7-3.1,4.7-5h-4.4v-1.7H103.7z"/>
				<path class="st3" d="M108.9,55.2h-2.1V39.8h2.3l8.2,12.2V39.8h2.1v15.4h-2.3l-8.2-12.2V55.2z"/>
				<path class="st3" d="M124.3,50.3c-0.1,2,1.6,3.6,4.4,3.6c2.7,0,3.8-1.4,3.8-2.9c0-1.9-1.7-2.4-3.1-2.7c-3.5-0.8-6.6-1.1-6.6-4.6
					c0-2.9,2.4-4.4,5.8-4.4c3.8,0,5.5,2.1,5.7,4.5h-2.1c-0.3-2.6-2.7-2.7-3.7-2.7c-2.1,0-3.6,1-3.6,2.6c0,1.9,1.8,2.2,3.9,2.6
					c2.8,0.5,5.9,1.1,5.9,4.8c0,4.6-4.8,4.6-6.1,4.6c-2.2,0-6.1-0.5-6.4-5.4H124.3z"/>
				<path class="st3" d="M56.5,69.8c3.1,0,5.2,1.2,5.2,4.4c0,2.9-1.4,4.8-5.4,4.8h-4v6.1h-2.1V69.8H56.5z M52.3,77.3h3.8
					c2.5,0,3.5-1,3.5-3.1c0-1.9-1.1-2.7-3.5-2.7h-3.8V77.3z"/>
				<path class="st3" d="M70.8,69.3c3.4,0,7.4,1.9,7.4,8.2c0,8.1-6.4,8.2-7.4,8.2c-1,0-7.4-0.1-7.4-8.2
					C63.5,72.1,66.5,69.3,70.8,69.3z M70.8,83.9c1.1,0,5.2-0.2,5.2-6.4c0-3.6-1.6-6.4-5.2-6.4c-4.7,0-5.2,4.8-5.2,6.4
					C65.7,79.9,66.4,83.9,70.8,83.9z"/>
				<path class="st3" d="M83.1,69.8v15.4H81V69.8H83.1z"/>
				<path class="st3" d="M88.9,85.2h-2.1V69.8h2.3L97.3,82V69.8h2.1v15.4h-2.3l-8.2-12.2V85.2z"/>
				<path class="st3" d="M101.6,71.5v-1.7h12.1v1.7h-5v13.7h-2.1V71.5H101.6z"/>
				<path class="st3" d="M121.6,71.5v-1.7h12.1v1.7h-5v13.7h-2.1V71.5H121.6z"/>
				<path class="st3" d="M141.2,69.3c3.4,0,7.4,1.9,7.4,8.2c0,8.1-6.4,8.2-7.4,8.2c-1,0-7.4-0.1-7.4-8.2
					C133.8,72.1,136.9,69.3,141.2,69.3z M141.2,83.9c1.1,0,5.2-0.2,5.2-6.4c0-3.6-1.6-6.4-5.2-6.4c-4.7,0-5.2,4.8-5.2,6.4
					C136,79.9,136.8,83.9,141.2,83.9z"/>
				<path class="st3" d="M89.3,99.8h2.5l-5.7,9v6.4H84v-6.4l-5.7-9h2.5l4.3,7.1L89.3,99.8z"/>
				<path class="st3" d="M102,106.3v1.7h-8.1v5.4h9.2v1.7H91.9V99.8h11v1.7h-8.9v4.8H102z"/>
				<path class="st3" d="M106.5,110.3c-0.1,2,1.6,3.6,4.4,3.6c2.7,0,3.8-1.4,3.8-2.9c0-1.9-1.7-2.4-3.1-2.7
					c-3.5-0.8-6.6-1.1-6.6-4.6c0-2.9,2.4-4.4,5.8-4.4c3.8,0,5.5,2.1,5.7,4.5h-2.1c-0.3-2.6-2.7-2.7-3.7-2.7c-2.1,0-3.6,1-3.6,2.6
					c0,1.9,1.8,2.2,3.9,2.6c2.8,0.5,5.9,1.1,5.9,4.8c0,4.6-4.8,4.6-6.1,4.6c-2.2,0-6.1-0.5-6.4-5.3H106.5z"/>
			</g>
		</g>
	</g>
</g>
</svg>
