<?xml version="1.0" encoding="utf-8"?>
<!-- Generator: Adobe Illustrator 21.1.0, SVG Export Plug-In . SVG Version: 6.00 Build 0)  -->
<svg version="1.1" xmlns="http://www.w3.org/2000/svg" xmlns:xlink="http://www.w3.org/1999/xlink" x="0px" y="0px"
	 viewBox="0 0 200 200" style="enable-background:new 0 0 200 200;" xml:space="preserve">
<style type="text/css">
	.st0{fill:url(#SVGID_1_);}
	.st1{opacity:0.75;}
	.st2{fill:#242062;}
	.st3{fill:#CDD4EC;}
</style>
<g id="Layer_2">
</g>
<g id="Layer_1">
	<g>
		
			<radialGradient id="SVGID_1_" cx="101.5343" cy="615.0226" r="122.3181" gradientTransform="matrix(-1 0 0 -1 201.923 688.0569)" gradientUnits="userSpaceOnUse">
			<stop  offset="0" style="stop-color:#2A3492"/>
			<stop  offset="0.8587" style="stop-color:#2A3492;stop-opacity:0.1413"/>
			<stop  offset="1" style="stop-color:#2A3492;stop-opacity:0"/>
		</radialGradient>
		<polygon class="st0" points="99,186.4 198,14.9 0,14.9 		"/>
	</g>
	<g>
		<g class="st1">
			<path class="st2" d="M56.5,33.9c4.9,0,10.5,2.7,10.5,11.7c0,11.5-9.2,11.7-10.5,11.7C55,57.2,46,57.1,46,45.6
				C46,37.9,50.4,33.9,56.5,33.9z M56.5,54.8c1.5,0,7.4-0.3,7.4-9.2c0-5.2-2.3-9.2-7.4-9.2c-6.7,0-7.4,6.8-7.4,9.2
				C49.1,49.1,50.2,54.8,56.5,54.8z"/>
			<path class="st2" d="M72.1,41.2v9.2c0,1.9,0.1,5,4,5c3.1,0,4-1.7,4-5v-9.2h2.1v9.4c0,6.3-4.4,6.4-6.1,6.4c-5.6,0-6.1-3.8-6.1-6.4
				v-9.4H72.1z"/>
			<path class="st2" d="M84,42.9v-1.7h12.1v1.7h-5v13.7h-2.1V42.9H84z"/>
			<path class="st2" d="M108.2,56.6h-9.9V41.2h2.1v13.7h7.8V56.6z"/>
			<path class="st2" d="M116.4,40.7c3.4,0,7.4,1.9,7.4,8.2c0,8.1-6.4,8.2-7.4,8.2c-1,0-7.4-0.1-7.4-8.2
				C109.1,43.5,112.1,40.7,116.4,40.7z M116.4,55.3c1.1,0,5.2-0.2,5.2-6.4c0-3.6-1.6-6.4-5.2-6.4c-4.7,0-5.2,4.8-5.2,6.4
				C111.3,51.4,112,55.3,116.4,55.3z"/>
			<path class="st2" d="M133.1,40.7c3.4,0,7.4,1.9,7.4,8.2c0,8.1-6.4,8.2-7.4,8.2c-1,0-7.4-0.1-7.4-8.2
				C125.7,43.5,128.8,40.7,133.1,40.7z M133.1,55.3c1.1,0,5.2-0.2,5.2-6.4c0-3.6-1.6-6.4-5.2-6.4c-4.7,0-5.2,4.8-5.2,6.4
				C127.9,51.4,128.7,55.3,133.1,55.3z"/>
			<path class="st2" d="M153,41.2h2.8l-6.4,6.3l6.8,9.1h-2.8l-5.6-7.7l-2.5,2.4v5.3h-2.1V41.2h2.1v7.6L153,41.2z"/>
			<path class="st2" d="M62.2,86.6h-2.1V71.2h2.3l8.2,12.2V71.2h2.1v15.4h-2.3l-8.2-12.2V86.6z"/>
			<path class="st2" d="M82.9,70.7c3.4,0,7.4,1.9,7.4,8.2c0,8.1-6.4,8.2-7.4,8.2c-1,0-7.4-0.1-7.4-8.2
				C75.6,73.5,78.6,70.7,82.9,70.7z M82.9,85.3c1.1,0,5.2-0.2,5.2-6.4c0-3.6-1.6-6.4-5.2-6.4c-4.7,0-5.2,4.8-5.2,6.4
				C77.8,81.4,78.5,85.3,82.9,85.3z"/>
			<path class="st2" d="M91.6,72.9v-1.7h12.1v1.7h-5v13.7h-2.1V72.9H91.6z"/>
			<path class="st2" d="M114.3,81.7c-0.1,2,1.6,3.6,4.4,3.6c2.7,0,3.8-1.4,3.8-2.9c0-1.9-1.7-2.4-3.1-2.7c-3.5-0.8-6.6-1.1-6.6-4.6
				c0-2.9,2.4-4.4,5.8-4.4c3.8,0,5.5,2.1,5.7,4.5h-2.1c-0.3-2.6-2.7-2.7-3.7-2.7c-2.1,0-3.6,1-3.6,2.6c0,1.9,1.8,2.2,3.9,2.6
				c2.8,0.5,5.9,1.1,5.9,4.8c0,4.6-4.8,4.6-6.1,4.6c-2.2,0-6.1-0.5-6.4-5.4H114.3z"/>
			<path class="st2" d="M134.1,70.7c3.4,0,7.4,1.9,7.4,8.2c0,8.1-6.4,8.2-7.4,8.2c-1,0-7.4-0.1-7.4-8.2
				C126.7,73.5,129.8,70.7,134.1,70.7z M134.1,85.3c1.1,0,5.2-0.2,5.2-6.4c0-3.6-1.6-6.4-5.2-6.4c-4.7,0-5.2,4.8-5.2,6.4
				C128.9,81.4,129.7,85.3,134.1,85.3z"/>
			<path class="st2" d="M82.6,108.5v8H81v-2.5h0c-0.9,1.8-2.7,3-5.1,3c-3.7,0-7.2-2.1-7.2-8.3c0-5.2,3-8,7.5-8c4.1,0,6,2.5,6.3,5
				h-2.1c-0.1-1.4-1.1-3.3-4.2-3.3c-4.9,0-5.3,4.7-5.3,6.3c0,1.1,0.3,6.5,5.3,6.5c3.8,0,4.7-3.1,4.7-5h-4.4v-1.7H82.6z"/>
			<path class="st2" d="M92.2,100.7c3.4,0,7.4,1.9,7.4,8.2c0,8.1-6.4,8.2-7.4,8.2c-1,0-7.4-0.1-7.4-8.2
				C84.9,103.5,87.9,100.7,92.2,100.7z M92.2,115.3c1.1,0,5.2-0.2,5.2-6.4c0-3.6-1.6-6.4-5.2-6.4c-4.7,0-5.2,4.8-5.2,6.4
				C87.1,111.4,87.8,115.3,92.2,115.3z"/>
			<path class="st2" d="M108.9,100.7c3.4,0,7.4,1.9,7.4,8.2c0,8.1-6.4,8.2-7.4,8.2c-1,0-7.4-0.1-7.4-8.2
				C101.6,103.5,104.6,100.7,108.9,100.7z M108.9,115.3c1.1,0,5.2-0.2,5.2-6.4c0-3.6-1.6-6.4-5.2-6.4c-4.7,0-5.2,4.8-5.2,6.4
				C103.8,111.4,104.5,115.3,108.9,115.3z"/>
			<path class="st2" d="M124.8,101.2c1.6,0,7.3,0.2,7.3,7.7c0,7.6-5.5,7.8-8.1,7.8h-4.9v-15.4H124.8z M121.2,114.8h2.9
				c4,0,5.8-1.8,5.8-6c0-4.7-2.6-6-5.2-6h-3.5V114.8z"/>
		</g>
		<g>
			<g>
				<path class="st3" d="M55.1,32.5c4.9,0,10.5,2.7,10.5,11.7c0,11.5-9.2,11.7-10.5,11.7c-1.4,0-10.5-0.2-10.5-11.7
					C44.6,36.4,48.9,32.5,55.1,32.5z M55.1,53.3c1.5,0,7.4-0.3,7.4-9.2c0-5.2-2.3-9.2-7.4-9.2c-6.7,0-7.4,6.8-7.4,9.2
					C47.7,47.7,48.8,53.3,55.1,53.3z"/>
				<path class="st3" d="M70.7,39.8v9.2c0,1.9,0.1,5,4,5c3.1,0,4-1.7,4-5v-9.2h2.1v9.4c0,6.3-4.4,6.4-6.1,6.4
					c-5.6,0-6.1-3.8-6.1-6.4v-9.4H70.7z"/>
				<path class="st3" d="M82.6,41.5v-1.7h12.1v1.7h-5v13.7h-2.1V41.5H82.6z"/>
				<path class="st3" d="M106.8,55.2h-9.9V39.8h2.1v13.7h7.8V55.2z"/>
				<path class="st3" d="M115,39.3c3.4,0,7.4,1.9,7.4,8.2c0,8.1-6.4,8.2-7.4,8.2c-1,0-7.4-0.1-7.4-8.2
					C107.6,42.1,110.7,39.3,115,39.3z M115,53.9c1.1,0,5.2-0.2,5.2-6.4c0-3.6-1.6-6.4-5.2-6.4c-4.7,0-5.2,4.8-5.2,6.4
					C109.8,49.9,110.6,53.9,115,53.9z"/>
				<path class="st3" d="M131.7,39.3c3.4,0,7.4,1.9,7.4,8.2c0,8.1-6.4,8.2-7.4,8.2c-1,0-7.4-0.1-7.4-8.2
					C124.3,42.1,127.4,39.3,131.7,39.3z M131.7,53.9c1.1,0,5.2-0.2,5.2-6.4c0-3.6-1.6-6.4-5.2-6.4c-4.7,0-5.2,4.8-5.2,6.4
					C126.5,49.9,127.3,53.9,131.7,53.9z"/>
				<path class="st3" d="M151.6,39.8h2.8l-6.4,6.3l6.8,9.1h-2.8l-5.6-7.7l-2.5,2.4v5.3h-2.1V39.8h2.1v7.6L151.6,39.8z"/>
				<path class="st3" d="M60.8,85.2h-2.1V69.8H61L69.2,82V69.8h2.1v15.4H69l-8.2-12.2V85.2z"/>
				<path class="st3" d="M81.5,69.3c3.4,0,7.4,1.9,7.4,8.2c0,8.1-6.4,8.2-7.4,8.2c-1,0-7.4-0.1-7.4-8.2
					C74.2,72.1,77.2,69.3,81.5,69.3z M81.5,83.9c1.1,0,5.2-0.2,5.2-6.4c0-3.6-1.6-6.4-5.2-6.4c-4.7,0-5.2,4.8-5.2,6.4
					C76.4,79.9,77.1,83.9,81.5,83.9z"/>
				<path class="st3" d="M90.2,71.5v-1.7h12.1v1.7h-5v13.7h-2.1V71.5H90.2z"/>
				<path class="st3" d="M112.9,80.3c-0.1,2,1.6,3.6,4.4,3.6c2.7,0,3.8-1.4,3.8-2.9c0-1.9-1.7-2.4-3.1-2.7c-3.5-0.8-6.6-1.1-6.6-4.6
					c0-2.9,2.4-4.4,5.8-4.4c3.8,0,5.5,2.1,5.7,4.5h-2.1c-0.3-2.6-2.7-2.7-3.7-2.7c-2.1,0-3.6,1-3.6,2.6c0,1.9,1.8,2.2,3.9,2.6
					c2.8,0.5,5.9,1.1,5.9,4.8c0,4.6-4.8,4.6-6.1,4.6c-2.2,0-6.1-0.5-6.4-5.4H112.9z"/>
				<path class="st3" d="M132.7,69.3c3.4,0,7.4,1.9,7.4,8.2c0,8.1-6.4,8.2-7.4,8.2c-1,0-7.4-0.1-7.4-8.2
					C125.3,72.1,128.4,69.3,132.7,69.3z M132.7,83.9c1.1,0,5.2-0.2,5.2-6.4c0-3.6-1.6-6.4-5.2-6.4c-4.7,0-5.2,4.8-5.2,6.4
					C127.5,79.9,128.3,83.9,132.7,83.9z"/>
				<path class="st3" d="M81.2,107.1v8h-1.6v-2.5h0c-0.9,1.8-2.7,3-5.1,3c-3.7,0-7.2-2.1-7.2-8.3c0-5.2,3-8,7.5-8c4.1,0,6,2.5,6.3,5
					h-2.1c-0.1-1.4-1.1-3.3-4.2-3.3c-4.9,0-5.3,4.7-5.3,6.3c0,1.1,0.3,6.5,5.3,6.5c3.8,0,4.7-3.1,4.7-5h-4.4v-1.7H81.2z"/>
				<path class="st3" d="M90.8,99.3c3.4,0,7.4,1.9,7.4,8.2c0,8.1-6.4,8.2-7.4,8.2c-1,0-7.4-0.1-7.4-8.2
					C83.5,102.1,86.5,99.3,90.8,99.3z M90.8,113.9c1.1,0,5.2-0.2,5.2-6.4c0-3.6-1.6-6.4-5.2-6.4c-4.7,0-5.2,4.8-5.2,6.4
					C85.7,109.9,86.4,113.9,90.8,113.9z"/>
				<path class="st3" d="M107.5,99.3c3.4,0,7.4,1.9,7.4,8.2c0,8.1-6.4,8.2-7.4,8.2c-1,0-7.4-0.1-7.4-8.2
					C100.2,102.1,103.2,99.3,107.5,99.3z M107.5,113.9c1.1,0,5.2-0.2,5.2-6.4c0-3.6-1.6-6.4-5.2-6.4c-4.7,0-5.2,4.8-5.2,6.4
					C102.4,109.9,103.1,113.9,107.5,113.9z"/>
				<path class="st3" d="M123.4,99.8c1.6,0,7.3,0.2,7.3,7.7c0,7.6-5.5,7.8-8.1,7.8h-4.9V99.8H123.4z M119.8,113.4h2.9
					c4,0,5.8-1.8,5.8-6c0-4.7-2.6-6-5.2-6h-3.5V113.4z"/>
			</g>
		</g>
	</g>
</g>
</svg>
