<?xml version="1.0" encoding="utf-8"?>
<!-- Generator: Adobe Illustrator 21.1.0, SVG Export Plug-In . SVG Version: 6.00 Build 0)  -->
<svg version="1.1" xmlns="http://www.w3.org/2000/svg" xmlns:xlink="http://www.w3.org/1999/xlink" x="0px" y="0px"
	 viewBox="0 0 200 200" style="enable-background:new 0 0 200 200;" xml:space="preserve">
<style type="text/css">
	.st0{fill:url(#SVGID_1_);}
	.st1{opacity:0.75;}
	.st2{fill:#242062;}
	.st3{fill:#CDD4EC;}
</style>
<g id="Layer_2">
</g>
<g id="Layer_1">
	<g>
		<radialGradient id="SVGID_1_" cx="97.0565" cy="112.8077" r="122.3181" gradientUnits="userSpaceOnUse">
			<stop  offset="0" style="stop-color:#2A3492"/>
			<stop  offset="0.8587" style="stop-color:#2A3492;stop-opacity:0.1413"/>
			<stop  offset="1" style="stop-color:#2A3492;stop-opacity:0"/>
		</radialGradient>
		<polygon class="st0" points="98.5,-0.5 -0.6,171 197.5,171 		"/>
	</g>
	<g>
		<g class="st1">
			<path class="st2" d="M81.2,65.6v22h-3v-22H81.2z"/>
			<path class="st2" d="M84.2,73.9v-1.7h12.1v1.7h-5v13.7h-2.1V73.9H84.2z"/>
			<path class="st2" d="M107.8,72.2v15.4h-2.1V72.2H107.8z"/>
			<path class="st2" d="M112.8,82.7c-0.1,2,1.6,3.6,4.4,3.6c2.7,0,3.8-1.4,3.8-2.9c0-1.9-1.7-2.4-3.1-2.7c-3.5-0.8-6.6-1.1-6.6-4.6
				c0-2.9,2.4-4.4,5.8-4.4c3.8,0,5.5,2.1,5.7,4.5h-2.1c-0.3-2.6-2.7-2.7-3.7-2.7c-2.1,0-3.6,1-3.6,2.6c0,1.9,1.8,2.2,3.9,2.6
				c2.8,0.5,5.9,1.1,5.9,4.8c0,4.6-4.8,4.6-6.1,4.6c-2.2,0-6.1-0.5-6.4-5.4H112.8z"/>
			<path class="st2" d="M69.1,112.5c-0.3,2.2-1.6,5.6-6.5,5.6c-4.6,0-7.3-3-7.3-7.9c0-8.2,6-8.4,7.3-8.4c4.9,0,6.1,2.9,6.4,5.2h-2.1
				c-0.1-1.1-0.8-3.5-4.3-3.5c-3.9,0-5.1,3.3-5.1,6.6c0,3.6,2,6.3,5.2,6.3c2.5,0,4.2-1.6,4.4-3.8H69.1z"/>
			<path class="st2" d="M82,108.8v1.7h-8.1v5.4h9.2v1.7H71.8v-15.4h11v1.7h-8.9v4.8H82z"/>
			<path class="st2" d="M85.3,102.2h6.8c1.7,0,5.1,0.2,5.1,4.1c0,1.8-1,3.5-2.6,3.8v0.1c2.1,0.8,2.2,2.1,2.2,3.7
				c0.1,2.1,0,2.8,0.6,3.7h-2.2c-0.5-0.7-0.6-1.3-0.6-3.3c0-1.6-0.2-3.3-2.9-3.3h-4.4v6.5h-2.1V102.2z M87.4,109.3H92
				c1,0,3-0.4,3-2.8c0-2-1.4-2.6-3.3-2.6h-4.3V109.3z"/>
			<path class="st2" d="M98.7,103.9v-1.7h12.1v1.7h-5v13.7h-2.1v-13.7H98.7z"/>
			<path class="st2" d="M111.8,117.6h-2.2l5.8-15.4h2.2l5.8,15.4h-2.2l-1.5-4h-6.5L111.8,117.6z M119.2,111.9l-2.7-7.6l-2.7,7.6
				H119.2z"/>
			<path class="st2" d="M127.3,102.2v15.4h-2.1v-15.4H127.3z"/>
			<path class="st2" d="M133.1,117.6H131v-15.4h2.3l8.2,12.2v-12.2h2.1v15.4h-2.3l-8.2-12.2V117.6z"/>
		</g>
		<g>
			<g>
				<path class="st3" d="M79.8,64.1v22h-3v-22H79.8z"/>
				<path class="st3" d="M82.8,72.5v-1.7h12.1v1.7h-5v13.7h-2.1V72.5H82.8z"/>
				<path class="st3" d="M106.4,70.8v15.4h-2.1V70.8H106.4z"/>
				<path class="st3" d="M111.4,81.3c-0.1,2,1.6,3.6,4.4,3.6c2.7,0,3.8-1.4,3.8-2.9c0-1.9-1.7-2.4-3.1-2.7c-3.5-0.8-6.6-1.1-6.6-4.6
					c0-2.9,2.4-4.4,5.8-4.4c3.8,0,5.5,2.1,5.7,4.5h-2.1c-0.3-2.6-2.7-2.7-3.7-2.7c-2.1,0-3.6,1-3.6,2.6c0,1.9,1.8,2.2,3.9,2.6
					c2.8,0.5,5.9,1.1,5.9,4.8c0,4.6-4.8,4.6-6.1,4.6c-2.2,0-6.1-0.5-6.4-5.4H111.4z"/>
				<path class="st3" d="M67.7,111.1c-0.3,2.2-1.6,5.6-6.5,5.6c-4.6,0-7.3-3-7.3-7.9c0-8.2,6-8.4,7.3-8.4c4.9,0,6.1,2.9,6.4,5.2
					h-2.1c-0.1-1.1-0.8-3.5-4.3-3.5c-3.9,0-5.1,3.3-5.1,6.6c0,3.6,2,6.3,5.2,6.3c2.5,0,4.2-1.6,4.4-3.8H67.7z"/>
				<path class="st3" d="M80.6,107.3v1.7h-8.1v5.4h9.2v1.7H70.4v-15.4h11v1.7h-8.9v4.8H80.6z"/>
				<path class="st3" d="M83.9,100.8h6.8c1.7,0,5.1,0.2,5.1,4.1c0,1.8-1,3.5-2.6,3.8v0.1c2.1,0.8,2.2,2.1,2.2,3.7
					c0.1,2.1,0,2.8,0.6,3.7h-2.2c-0.5-0.7-0.6-1.3-0.6-3.3c0-1.6-0.2-3.3-2.9-3.3H86v6.5h-2.1V100.8z M86,107.9h4.6c1,0,3-0.4,3-2.8
					c0-2-1.4-2.6-3.3-2.6H86V107.9z"/>
				<path class="st3" d="M97.3,102.5v-1.7h12.1v1.7h-5v13.7h-2.1v-13.7H97.3z"/>
				<path class="st3" d="M110.4,116.2h-2.2l5.8-15.4h2.2l5.8,15.4h-2.2l-1.5-4h-6.5L110.4,116.2z M117.8,110.4l-2.7-7.6l-2.7,7.6
					H117.8z"/>
				<path class="st3" d="M125.9,100.8v15.4h-2.1v-15.4H125.9z"/>
				<path class="st3" d="M131.7,116.2h-2.1v-15.4h2.3l8.2,12.2v-12.2h2.1v15.4h-2.3l-8.2-12.2V116.2z"/>
			</g>
		</g>
	</g>
</g>
</svg>
