<?xml version="1.0" encoding="utf-8"?>
<!-- Generator: Adobe Illustrator 21.1.0, SVG Export Plug-In . SVG Version: 6.00 Build 0)  -->
<svg version="1.1" xmlns="http://www.w3.org/2000/svg" xmlns:xlink="http://www.w3.org/1999/xlink" x="0px" y="0px"
	 viewBox="0 0 200 200" style="enable-background:new 0 0 200 200;" xml:space="preserve">
<style type="text/css">
	.st0{fill:url(#SVGID_1_);}
	.st1{opacity:0.75;}
	.st2{fill:#242062;}
	.st3{fill:#CDD4EC;}
</style>
<g id="Layer_2">
</g>
<g id="Layer_1">
	<g>
		
			<radialGradient id="SVGID_1_" cx="97.4968" cy="227.0226" r="122.3181" gradientTransform="matrix(1 0 0 1 0 -114)" gradientUnits="userSpaceOnUse">
			<stop  offset="0" style="stop-color:#2A3492"/>
			<stop  offset="0.8587" style="stop-color:#2A3492;stop-opacity:0.1413"/>
			<stop  offset="1" style="stop-color:#2A3492;stop-opacity:0"/>
		</radialGradient>
		<polygon class="st0" points="98.9,-0.3 -0.1,171.2 197.9,171.2 		"/>
	</g>
	<g>
		<g class="st1">
			<path class="st2" d="M91.6,77.6h3.5L87,90.4v9.2h-3v-9.2l-8.2-12.8h3.5l6.1,10.2L91.6,77.6z"/>
			<path class="st2" d="M104.6,90.8v1.7h-8.1v5.4h9.2v1.7H94.5V84.2h11v1.7h-8.9v4.8H104.6z"/>
			<path class="st2" d="M109.1,94.7c-0.1,2,1.6,3.6,4.4,3.6c2.7,0,3.8-1.4,3.8-2.9c0-1.9-1.7-2.4-3.1-2.7c-3.5-0.8-6.6-1.1-6.6-4.6
				c0-2.9,2.4-4.4,5.8-4.4c3.8,0,5.5,2.1,5.7,4.5h-2.1c-0.3-2.6-2.7-2.7-3.7-2.7c-2.1,0-3.6,1-3.6,2.6c0,1.9,1.8,2.2,3.9,2.6
				c2.8,0.5,5.9,1.1,5.9,4.8c0,4.6-4.8,4.6-6.1,4.6c-2.2,0-6.1-0.5-6.4-5.4H109.1z"/>
			<path class="st2" d="M49.1,114.2c1.6,0,7.3,0.2,7.3,7.7c0,7.6-5.5,7.8-8.1,7.8h-4.9v-15.4H49.1z M45.5,127.8h2.9
				c4,0,5.8-1.8,5.8-6c0-4.7-2.6-6-5.2-6h-3.5V127.8z"/>
			<path class="st2" d="M69.4,120.8v1.7h-8.1v5.4h9.2v1.7H59.3v-15.4h11v1.7h-8.9v4.8H69.4z"/>
			<path class="st2" d="M82.1,120.9v1.7h-7.2v6.9h-2.1v-15.4h10.3v1.7h-8.3v5H82.1z"/>
			<path class="st2" d="M87.3,114.2v15.4h-2.1v-15.4H87.3z"/>
			<path class="st2" d="M93.1,129.6h-2.1v-15.4h2.3l8.2,12.2v-12.2h2.1v15.4h-2.3l-8.2-12.2V129.6z"/>
			<path class="st2" d="M109.4,114.2v15.4h-2.1v-15.4H109.4z"/>
			<path class="st2" d="M111.6,115.9v-1.7h12.1v1.7h-5v13.7h-2.1v-13.7H111.6z"/>
			<path class="st2" d="M136,120.8v1.7h-8.1v5.4h9.2v1.7h-11.2v-15.4h11v1.7h-8.9v4.8H136z"/>
			<path class="st2" d="M149.2,129.6h-9.9v-15.4h2.1v13.7h7.8V129.6z"/>
			<path class="st2" d="M156.6,114.2h2.5l-5.7,9v6.4h-2.1v-6.4l-5.7-9h2.5l4.3,7.1L156.6,114.2z"/>
		</g>
		<g>
			<g>
				<path class="st3" d="M90.2,76.1h3.5L85.6,89v9.2h-3V89l-8.2-12.8h3.5l6.1,10.2L90.2,76.1z"/>
				<path class="st3" d="M103.2,89.3v1.7h-8.1v5.4h9.2v1.7H93.1V82.8h11v1.7h-8.9v4.8H103.2z"/>
				<path class="st3" d="M107.7,93.3c-0.1,2,1.6,3.6,4.4,3.6c2.7,0,3.8-1.4,3.8-2.9c0-1.9-1.7-2.4-3.1-2.7c-3.5-0.8-6.6-1.1-6.6-4.6
					c0-2.9,2.4-4.4,5.8-4.4c3.8,0,5.5,2.1,5.7,4.5h-2.1c-0.3-2.6-2.7-2.7-3.7-2.7c-2.1,0-3.6,1-3.6,2.6c0,1.9,1.8,2.2,3.9,2.6
					c2.8,0.5,5.9,1.1,5.9,4.8c0,4.6-4.8,4.6-6.1,4.6c-2.2,0-6.1-0.5-6.4-5.4H107.7z"/>
				<path class="st3" d="M47.7,112.8c1.6,0,7.3,0.2,7.3,7.7c0,7.6-5.5,7.8-8.1,7.8H42v-15.4H47.7z M44.1,126.4H47c4,0,5.8-1.8,5.8-6
					c0-4.7-2.6-6-5.2-6h-3.5V126.4z"/>
				<path class="st3" d="M68,119.3v1.7h-8.1v5.4h9.2v1.7H57.8v-15.4h11v1.7h-8.9v4.8H68z"/>
				<path class="st3" d="M80.6,119.5v1.7h-7.2v6.9h-2.1v-15.4h10.3v1.7h-8.3v5H80.6z"/>
				<path class="st3" d="M85.9,112.8v15.4h-2.1v-15.4H85.9z"/>
				<path class="st3" d="M91.7,128.2h-2.1v-15.4h2.3l8.2,12.2v-12.2h2.1v15.4h-2.3l-8.2-12.2V128.2z"/>
				<path class="st3" d="M108,112.8v15.4h-2.1v-15.4H108z"/>
				<path class="st3" d="M110.2,114.5v-1.7h12.1v1.7h-5v13.7h-2.1v-13.7H110.2z"/>
				<path class="st3" d="M134.6,119.3v1.7h-8.1v5.4h9.2v1.7h-11.2v-15.4h11v1.7h-8.9v4.8H134.6z"/>
				<path class="st3" d="M147.8,128.2h-9.9v-15.4h2.1v13.7h7.8V128.2z"/>
				<path class="st3" d="M155.2,112.8h2.5l-5.7,9v6.4h-2.1v-6.4l-5.7-9h2.5l4.3,7.1L155.2,112.8z"/>
			</g>
		</g>
	</g>
</g>
</svg>
