<?xml version="1.0" encoding="utf-8"?>
<!-- Generator: Adobe Illustrator 21.1.0, SVG Export Plug-In . SVG Version: 6.00 Build 0)  -->
<svg version="1.1" xmlns="http://www.w3.org/2000/svg" xmlns:xlink="http://www.w3.org/1999/xlink" x="0px" y="0px"
	 viewBox="0 0 200 200" style="enable-background:new 0 0 200 200;" xml:space="preserve">
<style type="text/css">
	.st0{fill:url(#SVGID_1_);}
	.st1{opacity:0.75;}
	.st2{fill:#242062;}
	.st3{fill:#CDD4EC;}
</style>
<g id="Layer_2">
</g>
<g id="Layer_1">
	<g>
		
			<radialGradient id="SVGID_1_" cx="102.1162" cy="615.0226" r="122.3181" gradientTransform="matrix(-1 0 0 -1 201.923 688.0569)" gradientUnits="userSpaceOnUse">
			<stop  offset="0" style="stop-color:#2A3492"/>
			<stop  offset="0.8587" style="stop-color:#2A3492;stop-opacity:0.1413"/>
			<stop  offset="1" style="stop-color:#2A3492;stop-opacity:0"/>
		</radialGradient>
		<polygon class="st0" points="98.4,186.4 197.4,14.9 -0.6,14.9 		"/>
	</g>
	<g>
		<g class="st1">
			<path class="st2" d="M50.7,38.1L50.7,38.1v0.8v17.7h-3v-22h4.4l6.9,18.1L66,34.6h4.4v22h-3V38.9l0.1-0.8h-0.1l-7.1,18.5h-2.4
				L50.7,38.1z"/>
			<path class="st2" d="M82.3,41.2h2.5l-5.7,9v6.4H77v-6.4l-5.7-9h2.5l4.3,7.1L82.3,41.2z"/>
			<path class="st2" d="M92.3,41.2h6.8c1.7,0,5.1,0.2,5.1,4.1c0,1.8-1,3.5-2.6,3.8v0.1c2.1,0.8,2.2,2.1,2.2,3.7
				c0.1,2.1,0,2.8,0.6,3.7h-2.2c-0.5-0.7-0.6-1.3-0.6-3.3c0-1.6-0.2-3.3-2.9-3.3h-4.4v6.5h-2.1V41.2z M94.3,48.3H99c1,0,3-0.4,3-2.8
				c0-2-1.4-2.6-3.3-2.6h-4.3V48.3z"/>
			<path class="st2" d="M117.4,47.8v1.7h-8.1v5.4h9.2v1.7h-11.2V41.2h11v1.7h-8.9v4.8H117.4z"/>
			<path class="st2" d="M127,41.2c3.1,0,5.2,1.2,5.2,4.4c0,2.9-1.4,4.8-5.4,4.8h-4v6.1h-2.1V41.2H127z M122.8,48.7h3.8
				c2.5,0,3.5-1,3.5-3.1c0-1.9-1.1-2.7-3.5-2.7h-3.8V48.7z"/>
			<path class="st2" d="M144.7,56.6h-9.9V41.2h2.1v13.7h7.8V56.6z"/>
			<path class="st2" d="M152.1,41.2h2.5l-5.7,9v6.4h-2.1v-6.4l-5.7-9h2.5l4.3,7.1L152.1,41.2z"/>
			<path class="st2" d="M92.7,71.2v15.4h-2.1V71.2H92.7z"/>
			<path class="st2" d="M97.7,81.7c-0.1,2,1.6,3.6,4.4,3.6c2.7,0,3.8-1.4,3.8-2.9c0-1.9-1.7-2.4-3.1-2.7c-3.5-0.8-6.6-1.1-6.6-4.6
				c0-2.9,2.4-4.4,5.8-4.4c3.8,0,5.5,2.1,5.7,4.5h-2.1c-0.3-2.6-2.7-2.7-3.7-2.7c-2.1,0-3.6,1-3.6,2.6c0,1.9,1.8,2.2,3.9,2.6
				c2.8,0.5,5.9,1.1,5.9,4.8c0,4.6-4.8,4.6-6.1,4.6c-2.2,0-6.1-0.5-6.4-5.4H97.7z"/>
			<path class="st2" d="M86.4,116.6h-2.1v-15.4h2.3l8.2,12.2v-12.2h2.1v15.4h-2.3l-8.2-12.2V116.6z"/>
			<path class="st2" d="M107.1,100.7c3.4,0,7.4,1.9,7.4,8.2c0,8.1-6.4,8.2-7.4,8.2c-1,0-7.4-0.1-7.4-8.2
				C99.7,103.5,102.8,100.7,107.1,100.7z M107.1,115.3c1.1,0,5.2-0.2,5.2-6.4c0-3.6-1.6-6.4-5.2-6.4c-4.7,0-5.2,4.8-5.2,6.4
				C101.9,111.4,102.7,115.3,107.1,115.3z"/>
		</g>
		<g>
			<g>
				<path class="st3" d="M49.3,36.7L49.3,36.7v0.8v17.7h-3v-22h4.4l6.9,18.1l6.9-18.1H69v22h-3V37.5l0.1-0.8H66l-7.1,18.5h-2.4
					L49.3,36.7z"/>
				<path class="st3" d="M80.9,39.8h2.5l-5.7,9v6.4h-2.1v-6.4l-5.7-9h2.5l4.3,7.1L80.9,39.8z"/>
				<path class="st3" d="M90.8,39.8h6.8c1.7,0,5.1,0.2,5.1,4.1c0,1.8-1,3.5-2.6,3.8v0.1c2.1,0.8,2.2,2.1,2.2,3.7
					c0.1,2.1,0,2.8,0.6,3.7h-2.2c-0.5-0.7-0.6-1.3-0.6-3.3c0-1.6-0.2-3.3-2.9-3.3h-4.4v6.5h-2.1V39.8z M92.9,46.9h4.6
					c1,0,3-0.4,3-2.8c0-2-1.4-2.6-3.3-2.6h-4.3V46.9z"/>
				<path class="st3" d="M116,46.3v1.7h-8.1v5.4h9.2v1.7h-11.2V39.8h11v1.7h-8.9v4.8H116z"/>
				<path class="st3" d="M125.6,39.8c3.1,0,5.2,1.2,5.2,4.4c0,2.9-1.4,4.8-5.4,4.8h-4v6.1h-2.1V39.8H125.6z M121.4,47.3h3.8
					c2.5,0,3.5-1,3.5-3.1c0-1.9-1.1-2.7-3.5-2.7h-3.8V47.3z"/>
				<path class="st3" d="M143.3,55.2h-9.9V39.8h2.1v13.7h7.8V55.2z"/>
				<path class="st3" d="M150.7,39.8h2.5l-5.7,9v6.4h-2.1v-6.4l-5.7-9h2.5l4.3,7.1L150.7,39.8z"/>
				<path class="st3" d="M91.3,69.8v15.4h-2.1V69.8H91.3z"/>
				<path class="st3" d="M96.3,80.3c-0.1,2,1.6,3.6,4.4,3.6c2.7,0,3.8-1.4,3.8-2.9c0-1.9-1.7-2.4-3.1-2.7c-3.5-0.8-6.6-1.1-6.6-4.6
					c0-2.9,2.4-4.4,5.8-4.4c3.8,0,5.5,2.1,5.7,4.5h-2.1c-0.3-2.6-2.7-2.7-3.7-2.7c-2.1,0-3.6,1-3.6,2.6c0,1.9,1.8,2.2,3.9,2.6
					c2.8,0.5,5.9,1.1,5.9,4.8c0,4.6-4.8,4.6-6.1,4.6c-2.2,0-6.1-0.5-6.4-5.4H96.3z"/>
				<path class="st3" d="M85,115.2h-2.1V99.8h2.3l8.2,12.2V99.8h2.1v15.4h-2.3L85,102.9V115.2z"/>
				<path class="st3" d="M105.7,99.3c3.4,0,7.4,1.9,7.4,8.2c0,8.1-6.4,8.2-7.4,8.2c-1,0-7.4-0.1-7.4-8.2
					C98.3,102.1,101.4,99.3,105.7,99.3z M105.7,113.9c1.1,0,5.2-0.2,5.2-6.4c0-3.6-1.6-6.4-5.2-6.4c-4.7,0-5.2,4.8-5.2,6.4
					C100.5,109.9,101.3,113.9,105.7,113.9z"/>
			</g>
		</g>
	</g>
</g>
</svg>
