<?xml version="1.0" encoding="utf-8"?>
<!-- Generator: Adobe Illustrator 21.1.0, SVG Export Plug-In . SVG Version: 6.00 Build 0)  -->
<svg version="1.1" xmlns="http://www.w3.org/2000/svg" xmlns:xlink="http://www.w3.org/1999/xlink" x="0px" y="0px"
	 viewBox="0 0 200 200" style="enable-background:new 0 0 200 200;" xml:space="preserve">
<style type="text/css">
	.st0{fill:url(#SVGID_1_);}
	.st1{opacity:0.75;}
	.st2{fill:#242062;}
	.st3{fill:#CDD4EC;}
</style>
<g id="Layer_2">
</g>
<g id="Layer_1">
	<g>
		
			<radialGradient id="SVGID_1_" cx="100.5565" cy="274.0226" r="122.3181" gradientTransform="matrix(-1 0 0 -1 200.9231 346.0569)" gradientUnits="userSpaceOnUse">
			<stop  offset="0" style="stop-color:#2A3492"/>
			<stop  offset="0.8587" style="stop-color:#2A3492;stop-opacity:0.1413"/>
			<stop  offset="1" style="stop-color:#2A3492;stop-opacity:0"/>
		</radialGradient>
		<polygon class="st0" points="99,185.4 198,13.9 -0.1,13.9 		"/>
	</g>
	<g>
		<g class="st1">
			<path class="st2" d="M78.6,67.6h-3.2l8.3-22h3.1l8.3,22h-3.2L90,61.9h-9.3L78.6,67.6z M89.2,59.4l-3.8-10.9l-3.8,10.9H89.2z"/>
			<path class="st2" d="M98.2,62.7c-0.1,2,1.6,3.6,4.4,3.6c2.7,0,3.8-1.4,3.8-2.9c0-1.9-1.7-2.4-3.1-2.7c-3.5-0.8-6.6-1.1-6.6-4.6
				c0-2.9,2.4-4.4,5.8-4.4c3.8,0,5.5,2.1,5.7,4.5h-2.1c-0.3-2.6-2.7-2.7-3.7-2.7c-2.1,0-3.6,1-3.6,2.6c0,1.9,1.8,2.2,3.9,2.6
				c2.8,0.5,5.9,1.1,5.9,4.8c0,4.6-4.8,4.6-6.1,4.6c-2.2,0-6.1-0.5-6.4-5.4H98.2z"/>
			<path class="st2" d="M122.5,45.6v22h-3v-22H122.5z"/>
			<path class="st2" d="M69.8,92.7c-0.1,2,1.6,3.6,4.4,3.6c2.7,0,3.8-1.4,3.8-2.9c0-1.9-1.7-2.4-3.1-2.7c-3.5-0.8-6.6-1.1-6.6-4.6
				c0-2.9,2.4-4.4,5.8-4.4c3.8,0,5.5,2.1,5.7,4.5h-2.1c-0.3-2.6-2.7-2.7-3.7-2.7c-2.1,0-3.6,1-3.6,2.6c0,1.9,1.8,2.2,3.9,2.6
				c2.8,0.5,5.9,1.1,5.9,4.8c0,4.6-4.8,4.6-6.1,4.6c-2.2,0-6.1-0.5-6.4-5.4H69.8z"/>
			<path class="st2" d="M93.2,88.8v1.7h-8.1v5.4h9.2v1.7H83.1V82.2h11v1.7h-8.9v4.8H93.2z"/>
			<path class="st2" d="M106.7,88.8v1.7h-8.1v5.4h9.2v1.7H96.6V82.2h11v1.7h-8.9v4.8H106.7z"/>
			<path class="st2" d="M119.4,82.2v15.4h-2.1V82.2H119.4z"/>
			<path class="st2" d="M121.6,83.9v-1.7h12.1v1.7h-5v13.7h-2.1V83.9H121.6z"/>
			<path class="st2" d="M90.7,112.2h2.5l-5.7,9v6.4h-2.1v-6.4l-5.7-9h2.5l4.3,7.1L90.7,112.2z"/>
			<path class="st2" d="M103.4,118.8v1.7h-8.1v5.4h9.2v1.7H93.3v-15.4h11v1.7h-8.9v4.8H103.4z"/>
			<path class="st2" d="M107.9,122.7c-0.1,2,1.6,3.6,4.4,3.6c2.7,0,3.8-1.4,3.8-2.9c0-1.9-1.7-2.4-3.1-2.7c-3.5-0.8-6.6-1.1-6.6-4.6
				c0-2.9,2.4-4.4,5.8-4.4c3.8,0,5.5,2.1,5.7,4.5h-2.1c-0.3-2.6-2.7-2.7-3.7-2.7c-2.1,0-3.6,1-3.6,2.6c0,1.9,1.8,2.2,3.9,2.6
				c2.8,0.5,5.9,1.1,5.9,4.8c0,4.6-4.8,4.6-6.1,4.6c-2.2,0-6.1-0.5-6.4-5.3H107.9z"/>
		</g>
		<g>
			<g>
				<path class="st3" d="M77.2,66.2H74l8.3-22h3.1l8.3,22h-3.2l-2.1-5.7h-9.3L77.2,66.2z M87.8,58l-3.8-10.9L80.1,58H87.8z"/>
				<path class="st3" d="M96.8,61.3c-0.1,2,1.6,3.6,4.4,3.6c2.7,0,3.8-1.4,3.8-2.9c0-1.9-1.7-2.4-3.1-2.7c-3.5-0.8-6.6-1.1-6.6-4.6
					c0-2.9,2.4-4.4,5.8-4.4c3.8,0,5.5,2.1,5.7,4.5h-2.1c-0.3-2.6-2.7-2.7-3.7-2.7c-2.1,0-3.6,1-3.6,2.6c0,1.9,1.8,2.2,3.9,2.6
					c2.8,0.5,5.9,1.1,5.9,4.8c0,4.6-4.8,4.6-6.1,4.6c-2.2,0-6.1-0.5-6.4-5.4H96.8z"/>
				<path class="st3" d="M121.1,44.1v22h-3v-22H121.1z"/>
				<path class="st3" d="M68.4,91.3c-0.1,2,1.6,3.6,4.4,3.6c2.7,0,3.8-1.4,3.8-2.9c0-1.9-1.7-2.4-3.1-2.7c-3.5-0.8-6.6-1.1-6.6-4.6
					c0-2.9,2.4-4.4,5.8-4.4c3.8,0,5.5,2.1,5.7,4.5h-2.1c-0.3-2.6-2.7-2.7-3.7-2.7c-2.1,0-3.6,1-3.6,2.6c0,1.9,1.8,2.2,3.9,2.6
					c2.8,0.5,5.9,1.1,5.9,4.8c0,4.6-4.8,4.6-6.1,4.6c-2.2,0-6.1-0.5-6.4-5.4H68.4z"/>
				<path class="st3" d="M91.8,87.3v1.7h-8.1v5.4h9.2v1.7H81.7V80.8h11v1.7h-8.9v4.8H91.8z"/>
				<path class="st3" d="M105.3,87.3v1.7h-8.1v5.4h9.2v1.7H95.2V80.8h11v1.7h-8.9v4.8H105.3z"/>
				<path class="st3" d="M118,80.8v15.4H116V80.8H118z"/>
				<path class="st3" d="M120.2,82.5v-1.7h12.1v1.7h-5v13.7h-2.1V82.5H120.2z"/>
				<path class="st3" d="M89.3,110.8h2.5l-5.7,9v6.4H84v-6.4l-5.7-9h2.5l4.3,7.1L89.3,110.8z"/>
				<path class="st3" d="M102,117.3v1.7h-8.1v5.4h9.2v1.7H91.9v-15.4h11v1.7h-8.9v4.8H102z"/>
				<path class="st3" d="M106.5,121.3c-0.1,2,1.6,3.6,4.4,3.6c2.7,0,3.8-1.4,3.8-2.9c0-1.9-1.7-2.4-3.1-2.7
					c-3.5-0.8-6.6-1.1-6.6-4.6c0-2.9,2.4-4.4,5.8-4.4c3.8,0,5.5,2.1,5.7,4.5h-2.1c-0.3-2.6-2.7-2.7-3.7-2.7c-2.1,0-3.6,1-3.6,2.6
					c0,1.9,1.8,2.2,3.9,2.6c2.8,0.5,5.9,1.1,5.9,4.8c0,4.6-4.8,4.6-6.1,4.6c-2.2,0-6.1-0.5-6.4-5.3H106.5z"/>
			</g>
		</g>
	</g>
</g>
</svg>
