<?xml version="1.0" encoding="utf-8"?>
<!-- Generator: Adobe Illustrator 21.1.0, SVG Export Plug-In . SVG Version: 6.00 Build 0)  -->
<svg version="1.1" xmlns="http://www.w3.org/2000/svg" xmlns:xlink="http://www.w3.org/1999/xlink" x="0px" y="0px"
	 viewBox="0 0 200 200" style="enable-background:new 0 0 200 200;" xml:space="preserve">
<style type="text/css">
	.st0{fill:url(#SVGID_1_);}
	.st1{opacity:0.75;}
	.st2{fill:#242062;}
	.st3{fill:#CDD4EC;}
</style>
<g id="Layer_2">
</g>
<g id="Layer_1">
	<g>
		
			<radialGradient id="SVGID_1_" cx="97.5342" cy="457.0226" r="122.3181" gradientTransform="matrix(1 0 0 1 0 -344)" gradientUnits="userSpaceOnUse">
			<stop  offset="0" style="stop-color:#2A3492"/>
			<stop  offset="0.8587" style="stop-color:#2A3492;stop-opacity:0.1413"/>
			<stop  offset="1" style="stop-color:#2A3492;stop-opacity:0"/>
		</radialGradient>
		<polygon class="st0" points="98.9,-0.3 -0.1,171.2 198,171.2 		"/>
	</g>
	<g>
		<g class="st1">
			<path class="st2" d="M79.1,81.6h-3.2l8.3-22h3.1l8.3,22h-3.2l-2.1-5.7h-9.3L79.1,81.6z M89.7,73.4l-3.8-10.9L82,73.4H89.7z"/>
			<path class="st2" d="M98.7,76.7c-0.1,2,1.6,3.6,4.4,3.6c2.7,0,3.8-1.4,3.8-2.9c0-1.9-1.7-2.4-3.1-2.7c-3.5-0.8-6.6-1.1-6.6-4.6
				c0-2.9,2.4-4.4,5.8-4.4c3.8,0,5.5,2.1,5.7,4.5h-2.1c-0.3-2.6-2.7-2.7-3.7-2.7c-2.1,0-3.6,1-3.6,2.6c0,1.9,1.8,2.2,3.9,2.6
				c2.8,0.5,5.9,1.1,5.9,4.8c0,4.6-4.8,4.6-6.1,4.6c-2.2,0-6.1-0.5-6.4-5.4H98.7z"/>
			<path class="st2" d="M121.6,66.2h2.8l-6.4,6.3l6.8,9.1h-2.8l-5.6-7.7l-2.5,2.4v5.3h-2.1V66.2h2.1v7.6L121.6,66.2z"/>
			<path class="st2" d="M69.6,111.6h-2.2l5.8-15.4h2.2l5.8,15.4h-2.2l-1.5-4h-6.5L69.6,111.6z M77,105.9l-2.7-7.6l-2.7,7.6H77z"/>
			<path class="st2" d="M96.2,103.5v8h-1.6v-2.5h0c-0.9,1.8-2.7,3-5.1,3c-3.7,0-7.2-2.1-7.2-8.3c0-5.2,3-8,7.5-8c4.1,0,6,2.5,6.3,5
				h-2.1c-0.1-1.4-1.1-3.3-4.2-3.3c-4.9,0-5.3,4.7-5.3,6.3c0,1.1,0.3,6.5,5.3,6.5c3.8,0,4.7-3.1,4.7-5h-4.4v-1.7H96.2z"/>
			<path class="st2" d="M99.6,111.6h-2.2l5.8-15.4h2.2l5.8,15.4h-2.2l-1.5-4h-6.5L99.6,111.6z M107,105.9l-2.7-7.6l-2.7,7.6H107z"/>
			<path class="st2" d="M115.1,96.2v15.4h-2.1V96.2H115.1z"/>
			<path class="st2" d="M120.9,111.6h-2.1V96.2h2.3l8.2,12.2V96.2h2.1v15.4h-2.3l-8.2-12.2V111.6z"/>
			<path class="st2" d="M79.7,141.6h-9.9v-15.4h2.1v13.7h7.8V141.6z"/>
			<path class="st2" d="M81.7,141.6h-2.2l5.8-15.4h2.2l5.8,15.4h-2.2l-1.5-4h-6.5L81.7,141.6z M89.1,135.9l-2.7-7.6l-2.7,7.6H89.1z"
				/>
			<path class="st2" d="M92.1,127.9v-1.7h12.1v1.7h-5v13.7h-2.1v-13.7H92.1z"/>
			<path class="st2" d="M116.5,132.8v1.7h-8.1v5.4h9.2v1.7h-11.2v-15.4h11v1.7h-8.9v4.8H116.5z"/>
			<path class="st2" d="M119.8,126.2h6.8c1.7,0,5.1,0.2,5.1,4.1c0,1.8-1,3.5-2.6,3.8v0.1c2.1,0.8,2.2,2.1,2.2,3.7
				c0.1,2.1,0,2.8,0.6,3.7h-2.2c-0.5-0.7-0.6-1.3-0.6-3.3c0-1.6-0.2-3.3-2.9-3.3h-4.4v6.5h-2.1V126.2z M121.9,133.3h4.6
				c1,0,3-0.4,3-2.8c0-2-1.4-2.6-3.3-2.6h-4.3V133.3z"/>
		</g>
		<g>
			<g>
				<path class="st3" d="M77.7,80.2h-3.2l8.3-22H86l8.3,22h-3.2l-2.1-5.7h-9.3L77.7,80.2z M88.3,72l-3.8-10.9L80.6,72H88.3z"/>
				<path class="st3" d="M97.3,75.3c-0.1,2,1.6,3.6,4.4,3.6c2.7,0,3.8-1.4,3.8-2.9c0-1.9-1.7-2.4-3.1-2.7c-3.5-0.8-6.6-1.1-6.6-4.6
					c0-2.9,2.4-4.4,5.8-4.4c3.8,0,5.5,2.1,5.7,4.5h-2.1c-0.3-2.6-2.7-2.7-3.7-2.7c-2.1,0-3.6,1-3.6,2.6c0,1.9,1.8,2.2,3.9,2.6
					c2.8,0.5,5.9,1.1,5.9,4.8c0,4.6-4.8,4.6-6.1,4.6c-2.2,0-6.1-0.5-6.4-5.4H97.3z"/>
				<path class="st3" d="M120.2,64.8h2.8l-6.4,6.3l6.8,9.1h-2.8l-5.6-7.7l-2.5,2.4v5.3h-2.1V64.8h2.1v7.6L120.2,64.8z"/>
				<path class="st3" d="M68.2,110.2H66l5.8-15.4H74l5.8,15.4h-2.2l-1.5-4h-6.5L68.2,110.2z M75.6,104.4l-2.7-7.6l-2.7,7.6H75.6z"/>
				<path class="st3" d="M94.8,102.1v8h-1.6v-2.5h0c-0.9,1.8-2.7,3-5.1,3c-3.7,0-7.2-2.1-7.2-8.3c0-5.2,3-8,7.5-8c4.1,0,6,2.5,6.3,5
					h-2.1c-0.1-1.4-1.1-3.3-4.2-3.3c-4.9,0-5.3,4.7-5.3,6.3c0,1.1,0.3,6.5,5.3,6.5c3.8,0,4.7-3.1,4.7-5h-4.4v-1.7H94.8z"/>
				<path class="st3" d="M98.2,110.2H96l5.8-15.4h2.2l5.8,15.4h-2.2l-1.5-4h-6.5L98.2,110.2z M105.6,104.4l-2.7-7.6l-2.7,7.6H105.6z
					"/>
				<path class="st3" d="M113.7,94.8v15.4h-2.1V94.8H113.7z"/>
				<path class="st3" d="M119.5,110.2h-2.1V94.8h2.3l8.2,12.2V94.8h2.1v15.4h-2.3l-8.2-12.2V110.2z"/>
				<path class="st3" d="M78.3,140.2h-9.9v-15.4h2.1v13.7h7.8V140.2z"/>
				<path class="st3" d="M80.3,140.2H78l5.8-15.4h2.2l5.8,15.4h-2.2l-1.5-4h-6.5L80.3,140.2z M87.7,134.4l-2.7-7.6l-2.7,7.6H87.7z"
					/>
				<path class="st3" d="M90.6,126.5v-1.7h12.1v1.7h-5v13.7h-2.1v-13.7H90.6z"/>
				<path class="st3" d="M115,131.3v1.7H107v5.4h9.2v1.7h-11.2v-15.4h11v1.7H107v4.8H115z"/>
				<path class="st3" d="M118.4,124.8h6.8c1.7,0,5.1,0.2,5.1,4.1c0,1.8-1,3.5-2.6,3.8v0.1c2.1,0.8,2.2,2.1,2.2,3.7
					c0.1,2.1,0,2.8,0.6,3.7h-2.2c-0.5-0.7-0.6-1.3-0.6-3.3c0-1.6-0.2-3.3-2.9-3.3h-4.4v6.5h-2.1V124.8z M120.4,131.9h4.6
					c1,0,3-0.4,3-2.8c0-2-1.4-2.6-3.3-2.6h-4.3V131.9z"/>
			</g>
		</g>
	</g>
</g>
</svg>
