<?xml version="1.0" encoding="utf-8"?>
<!-- Generator: Adobe Illustrator 21.1.0, SVG Export Plug-In . SVG Version: 6.00 Build 0)  -->
<svg version="1.1" xmlns="http://www.w3.org/2000/svg" xmlns:xlink="http://www.w3.org/1999/xlink" x="0px" y="0px"
	 viewBox="0 0 200 200" style="enable-background:new 0 0 200 200;" xml:space="preserve">
<style type="text/css">
	.st0{fill:url(#SVGID_1_);}
	.st1{opacity:0.75;}
	.st2{fill:#242062;}
	.st3{fill:#CDD4EC;}
</style>
<g id="Layer_2">
</g>
<g id="Layer_1">
	<g>
		<radialGradient id="SVGID_1_" cx="97.4968" cy="112.8077" r="122.3181" gradientUnits="userSpaceOnUse">
			<stop  offset="0" style="stop-color:#2A3492"/>
			<stop  offset="0.8587" style="stop-color:#2A3492;stop-opacity:0.1413"/>
			<stop  offset="1" style="stop-color:#2A3492;stop-opacity:0"/>
		</radialGradient>
		<polygon class="st0" points="98.9,-0.5 -0.1,171 197.9,171 		"/>
	</g>
	<g>
		<g class="st1">
			<path class="st2" d="M80.8,75.6v22h-3v-22H80.8z"/>
			<path class="st2" d="M83.7,83.9v-1.7h12.1v1.7h-5v13.7h-2.1V83.9H83.7z"/>
			<path class="st2" d="M107.4,82.2v15.4h-2.1V82.2H107.4z"/>
			<path class="st2" d="M112.3,92.7c-0.1,2,1.6,3.6,4.4,3.6c2.7,0,3.8-1.4,3.8-2.9c0-1.9-1.7-2.4-3.1-2.7c-3.5-0.8-6.6-1.1-6.6-4.6
				c0-2.9,2.4-4.4,5.8-4.4c3.8,0,5.5,2.1,5.7,4.5h-2.1c-0.3-2.6-2.7-2.7-3.7-2.7c-2.1,0-3.6,1-3.6,2.6c0,1.9,1.8,2.2,3.9,2.6
				c2.8,0.5,5.9,1.1,5.9,4.8c0,4.6-4.8,4.6-6.1,4.6c-2.2,0-6.1-0.5-6.4-5.4H112.3z"/>
			<path class="st2" d="M49.1,112.2c1.6,0,7.3,0.2,7.3,7.7c0,7.6-5.5,7.8-8.1,7.8h-4.9v-15.4H49.1z M45.5,125.8h2.9
				c4,0,5.8-1.8,5.8-6c0-4.7-2.6-6-5.2-6h-3.5V125.8z"/>
			<path class="st2" d="M69.4,118.8v1.7h-8.1v5.4h9.2v1.7H59.2v-15.4h11v1.7h-8.9v4.8H69.4z"/>
			<path class="st2" d="M85.7,122.5c-0.3,2.2-1.6,5.6-6.5,5.6c-4.6,0-7.3-3-7.3-7.9c0-8.2,6-8.4,7.3-8.4c4.9,0,6.1,2.9,6.4,5.2h-2.1
				c-0.1-1.1-0.8-3.5-4.3-3.5c-3.9,0-5.1,3.3-5.1,6.6c0,3.6,2,6.3,5.2,6.3c2.5,0,4.2-1.6,4.4-3.8H85.7z"/>
			<path class="st2" d="M90.5,112.2v15.4h-2.1v-15.4H90.5z"/>
			<path class="st2" d="M99.9,112.2c1.6,0,7.3,0.2,7.3,7.7c0,7.6-5.5,7.8-8.1,7.8h-4.9v-15.4H99.9z M96.3,125.8h2.9
				c4,0,5.8-1.8,5.8-6c0-4.7-2.6-6-5.2-6h-3.5V125.8z"/>
			<path class="st2" d="M120.2,118.8v1.7h-8.1v5.4h9.2v1.7H110v-15.4h11v1.7h-8.9v4.8H120.2z"/>
			<path class="st2" d="M129.2,112.2c1.6,0,7.3,0.2,7.3,7.7c0,7.6-5.5,7.8-8.1,7.8h-4.9v-15.4H129.2z M125.6,125.8h2.9
				c4,0,5.8-1.8,5.8-6c0-4.7-2.6-6-5.2-6h-3.5V125.8z"/>
			<path class="st2" d="M149.3,127.6h-9.9v-15.4h2.1v13.7h7.8V127.6z"/>
			<path class="st2" d="M156.6,112.2h2.5l-5.7,9v6.4h-2.1v-6.4l-5.7-9h2.5l4.3,7.1L156.6,112.2z"/>
			<path class="st2" d="M86.9,152.7c-0.1,2,1.6,3.6,4.4,3.6c2.7,0,3.8-1.4,3.8-2.9c0-1.9-1.7-2.4-3.1-2.7c-3.5-0.8-6.6-1.1-6.6-4.6
				c0-2.9,2.4-4.4,5.8-4.4c3.8,0,5.5,2.1,5.7,4.5h-2.1c-0.3-2.6-2.7-2.7-3.7-2.7c-2.1,0-3.6,1-3.6,2.6c0,1.9,1.8,2.2,3.9,2.6
				c2.8,0.5,5.9,1.1,5.9,4.8c0,4.6-4.8,4.6-6.1,4.6c-2.2,0-6.1-0.5-6.4-5.3H86.9z"/>
			<path class="st2" d="M106.7,141.7c3.4,0,7.4,1.9,7.4,8.2c0,8.1-6.4,8.2-7.4,8.2c-1,0-7.4-0.1-7.4-8.2
				C99.3,144.5,102.4,141.7,106.7,141.7z M106.7,156.3c1.1,0,5.2-0.2,5.2-6.4c0-3.6-1.6-6.4-5.2-6.4c-4.7,0-5.2,4.8-5.2,6.4
				C101.5,152.4,102.3,156.3,106.7,156.3z"/>
		</g>
		<g>
			<g>
				<path class="st3" d="M79.4,74.1v22h-3v-22H79.4z"/>
				<path class="st3" d="M82.3,82.5v-1.7h12.1v1.7h-5v13.7h-2.1V82.5H82.3z"/>
				<path class="st3" d="M106,80.8v15.4h-2.1V80.8H106z"/>
				<path class="st3" d="M110.9,91.3c-0.1,2,1.6,3.6,4.4,3.6c2.7,0,3.8-1.4,3.8-2.9c0-1.9-1.7-2.4-3.1-2.7c-3.5-0.8-6.6-1.1-6.6-4.6
					c0-2.9,2.4-4.4,5.8-4.4c3.8,0,5.5,2.1,5.7,4.5h-2.1c-0.3-2.6-2.7-2.7-3.7-2.7c-2.1,0-3.6,1-3.6,2.6c0,1.9,1.8,2.2,3.9,2.6
					c2.8,0.5,5.9,1.1,5.9,4.8c0,4.6-4.8,4.6-6.1,4.6c-2.2,0-6.1-0.5-6.4-5.4H110.9z"/>
				<path class="st3" d="M47.6,110.8c1.6,0,7.3,0.2,7.3,7.7c0,7.6-5.5,7.8-8.1,7.8H42v-15.4H47.6z M44.1,124.4h2.9
					c4,0,5.8-1.8,5.8-6c0-4.7-2.6-6-5.2-6h-3.5V124.4z"/>
				<path class="st3" d="M68,117.3v1.7h-8.1v5.4H69v1.7H57.8v-15.4h11v1.7h-8.9v4.8H68z"/>
				<path class="st3" d="M84.3,121.1c-0.3,2.2-1.6,5.6-6.5,5.6c-4.6,0-7.3-3-7.3-7.9c0-8.2,6-8.4,7.3-8.4c4.9,0,6.1,2.9,6.4,5.2H82
					c-0.1-1.1-0.8-3.5-4.3-3.5c-3.9,0-5.1,3.3-5.1,6.6c0,3.6,2,6.3,5.2,6.3c2.5,0,4.2-1.6,4.4-3.8H84.3z"/>
				<path class="st3" d="M89,110.8v15.4H87v-15.4H89z"/>
				<path class="st3" d="M98.4,110.8c1.6,0,7.3,0.2,7.3,7.7c0,7.6-5.5,7.8-8.1,7.8h-4.9v-15.4H98.4z M94.9,124.4h2.9
					c4,0,5.8-1.8,5.8-6c0-4.7-2.6-6-5.2-6h-3.5V124.4z"/>
				<path class="st3" d="M118.8,117.3v1.7h-8.1v5.4h9.2v1.7h-11.2v-15.4h11v1.7h-8.9v4.8H118.8z"/>
				<path class="st3" d="M127.8,110.8c1.6,0,7.3,0.2,7.3,7.7c0,7.6-5.5,7.8-8.1,7.8h-4.9v-15.4H127.8z M124.2,124.4h2.9
					c4,0,5.8-1.8,5.8-6c0-4.7-2.6-6-5.2-6h-3.5V124.4z"/>
				<path class="st3" d="M147.8,126.2h-9.9v-15.4h2.1v13.7h7.8V126.2z"/>
				<path class="st3" d="M155.2,110.8h2.5l-5.7,9v6.4h-2.1v-6.4l-5.7-9h2.5l4.3,7.1L155.2,110.8z"/>
				<path class="st3" d="M85.5,151.3c-0.1,2,1.6,3.6,4.4,3.6c2.7,0,3.8-1.4,3.8-2.9c0-1.9-1.7-2.4-3.1-2.7c-3.5-0.8-6.6-1.1-6.6-4.6
					c0-2.9,2.4-4.4,5.8-4.4c3.8,0,5.5,2.1,5.7,4.5h-2.1c-0.3-2.6-2.7-2.7-3.7-2.7c-2.1,0-3.6,1-3.6,2.6c0,1.9,1.8,2.2,3.9,2.6
					c2.8,0.5,5.9,1.1,5.9,4.8c0,4.6-4.8,4.6-6.1,4.6c-2.2,0-6.1-0.5-6.4-5.3H85.5z"/>
				<path class="st3" d="M105.2,140.3c3.4,0,7.4,1.9,7.4,8.2c0,8.1-6.4,8.2-7.4,8.2c-1,0-7.4-0.1-7.4-8.2
					C97.9,143.1,100.9,140.3,105.2,140.3z M105.2,154.9c1.1,0,5.2-0.2,5.2-6.4c0-3.6-1.6-6.4-5.2-6.4c-4.7,0-5.2,4.8-5.2,6.4
					C100.1,150.9,100.8,154.9,105.2,154.9z"/>
			</g>
		</g>
	</g>
</g>
</svg>
