<?xml version="1.0" encoding="utf-8"?>
<!-- Generator: Adobe Illustrator 21.1.0, SVG Export Plug-In . SVG Version: 6.00 Build 0)  -->
<svg version="1.1" xmlns="http://www.w3.org/2000/svg" xmlns:xlink="http://www.w3.org/1999/xlink" x="0px" y="0px"
	 viewBox="0 0 200 200" style="enable-background:new 0 0 200 200;" xml:space="preserve">
<style type="text/css">
	.st0{fill:url(#SVGID_1_);}
	.st1{opacity:0.75;}
	.st2{fill:#242062;}
	.st3{fill:#CDD4EC;}
</style>
<g id="Layer_2">
</g>
<g id="Layer_1">
	<g>
		
			<radialGradient id="SVGID_1_" cx="101.5564" cy="501.0226" r="122.3181" gradientTransform="matrix(-1 0 0 -1 201.923 574.0569)" gradientUnits="userSpaceOnUse">
			<stop  offset="0" style="stop-color:#2A3492"/>
			<stop  offset="0.8587" style="stop-color:#2A3492;stop-opacity:0.1413"/>
			<stop  offset="1" style="stop-color:#2A3492;stop-opacity:0"/>
		</radialGradient>
		<polygon class="st0" points="99,186.4 198,14.9 -0.1,14.9 		"/>
	</g>
	<g>
		<g class="st1">
			<path class="st2" d="M72.6,49.3c-0.4,3.1-2.2,8-9.3,8c-6.5,0-10.5-4.2-10.5-11.3c0-11.7,8.5-12.1,10.4-12.1c7,0,8.8,4.1,9.1,7.5
				h-3c-0.2-1.6-1.1-5-6.2-5c-5.5,0-7.2,4.7-7.2,9.4c0,5.1,2.8,8.9,7.5,8.9c3.5,0,6.1-2.3,6.2-5.5H72.6z"/>
			<path class="st2" d="M75.9,56.6h-2.2l5.8-15.4h2.2l5.8,15.4h-2.2l-1.5-4h-6.5L75.9,56.6z M83.3,50.9l-2.7-7.6l-2.7,7.6H83.3z"/>
			<path class="st2" d="M91.4,56.6h-2.1V41.2h2.3l8.2,12.2V41.2h2.1v15.4h-2.3l-8.2-12.2V56.6z"/>
			<path class="st2" d="M107.7,56.6h-2.1V41.2h2.3l8.2,12.2V41.2h2.1v15.4h-2.3l-8.2-12.2V56.6z"/>
			<path class="st2" d="M128.4,40.7c3.4,0,7.4,1.9,7.4,8.2c0,8.1-6.4,8.2-7.4,8.2c-1,0-7.4-0.1-7.4-8.2
				C121,43.5,124.1,40.7,128.4,40.7z M128.4,55.3c1.1,0,5.2-0.2,5.2-6.4c0-3.6-1.6-6.4-5.2-6.4c-4.7,0-5.2,4.8-5.2,6.4
				C123.2,51.4,124,55.3,128.4,55.3z"/>
			<path class="st2" d="M137,42.9v-1.7h12.1v1.7h-5v13.7H142V42.9H137z"/>
			<path class="st2" d="M62.3,71.2c3.1,0,5.2,1.2,5.2,4.4c0,2.9-1.4,4.8-5.4,4.8h-4v6.1H56V71.2H62.3z M58,78.7h3.8
				c2.5,0,3.5-1,3.5-3.1c0-1.9-1.1-2.7-3.5-2.7H58V78.7z"/>
			<path class="st2" d="M70.1,71.2h6.8c1.7,0,5.1,0.2,5.1,4.1c0,1.8-1,3.5-2.6,3.8v0.1c2.1,0.8,2.2,2.1,2.2,3.7
				c0.1,2.1,0,2.8,0.6,3.7H80c-0.5-0.7-0.6-1.3-0.6-3.3c0-1.6-0.2-3.3-2.9-3.3h-4.4v6.5h-2.1V71.2z M72.1,78.3h4.6c1,0,3-0.4,3-2.8
				c0-2-1.4-2.6-3.3-2.6h-4.3V78.3z"/>
			<path class="st2" d="M95.2,77.8v1.7h-8.1v5.4h9.2v1.7H85V71.2h11v1.7h-8.9v4.8H95.2z"/>
			<path class="st2" d="M104.2,71.2c1.6,0,7.3,0.2,7.3,7.7c0,7.6-5.5,7.8-8.1,7.8h-4.9V71.2H104.2z M100.6,84.8h2.9
				c4,0,5.8-1.8,5.8-6c0-4.7-2.6-6-5.2-6h-3.5V84.8z"/>
			<path class="st2" d="M116.4,71.2v15.4h-2.1V71.2H116.4z"/>
			<path class="st2" d="M133.1,81.5c-0.3,2.2-1.6,5.6-6.5,5.6c-4.6,0-7.3-3-7.3-7.9c0-8.2,6-8.4,7.3-8.4c4.9,0,6.1,2.9,6.4,5.2h-2.1
				c-0.1-1.1-0.8-3.5-4.3-3.5c-3.9,0-5.1,3.3-5.1,6.6c0,3.6,2,6.3,5.2,6.3c2.5,0,4.2-1.6,4.4-3.8H133.1z"/>
			<path class="st2" d="M134.3,72.9v-1.7h12.1v1.7h-5v13.7h-2.1V72.9H134.3z"/>
			<path class="st2" d="M78.8,116.6h-2.1v-15.4H79l8.2,12.2v-12.2h2.1v15.4H87l-8.2-12.2V116.6z"/>
			<path class="st2" d="M99.5,100.7c3.4,0,7.4,1.9,7.4,8.2c0,8.1-6.4,8.2-7.4,8.2c-1,0-7.4-0.1-7.4-8.2
				C92.1,103.5,95.2,100.7,99.5,100.7z M99.5,115.3c1.1,0,5.2-0.2,5.2-6.4c0-3.6-1.6-6.4-5.2-6.4c-4.7,0-5.2,4.8-5.2,6.4
				C94.3,111.4,95.1,115.3,99.5,115.3z"/>
			<path class="st2" d="M113.7,116.6H111l-4.1-15.4h2.3l3.2,12.9l3.2-12.9h2.4l3.2,12.9l3.2-12.9h2.3l-4.1,15.4h-2.6l-3.2-13
				L113.7,116.6z"/>
		</g>
		<g>
			<g>
				<path class="st3" d="M71.1,47.9c-0.4,3.1-2.2,8-9.3,8c-6.5,0-10.5-4.2-10.5-11.3c0-11.7,8.5-12.1,10.4-12.1c7,0,8.8,4.1,9.1,7.5
					h-3c-0.2-1.6-1.1-5-6.2-5c-5.5,0-7.2,4.7-7.2,9.4c0,5.1,2.8,8.9,7.5,8.9c3.5,0,6.1-2.3,6.2-5.5H71.1z"/>
				<path class="st3" d="M74.5,55.2h-2.2l5.8-15.4h2.2l5.8,15.4h-2.2l-1.5-4h-6.5L74.5,55.2z M81.9,49.4l-2.7-7.6l-2.7,7.6H81.9z"/>
				<path class="st3" d="M90,55.2h-2.1V39.8h2.3L98.4,52V39.8h2.1v15.4h-2.3L90,42.9V55.2z"/>
				<path class="st3" d="M106.3,55.2h-2.1V39.8h2.3l8.2,12.2V39.8h2.1v15.4h-2.3l-8.2-12.2V55.2z"/>
				<path class="st3" d="M127,39.3c3.4,0,7.4,1.9,7.4,8.2c0,8.1-6.4,8.2-7.4,8.2c-1,0-7.4-0.1-7.4-8.2
					C119.6,42.1,122.7,39.3,127,39.3z M127,53.9c1.1,0,5.2-0.2,5.2-6.4c0-3.6-1.6-6.4-5.2-6.4c-4.7,0-5.2,4.8-5.2,6.4
					C121.8,49.9,122.6,53.9,127,53.9z"/>
				<path class="st3" d="M135.6,41.5v-1.7h12.1v1.7h-5v13.7h-2.1V41.5H135.6z"/>
				<path class="st3" d="M60.8,69.8c3.1,0,5.2,1.2,5.2,4.4c0,2.9-1.4,4.8-5.4,4.8h-4v6.1h-2.1V69.8H60.8z M56.6,77.3h3.8
					c2.5,0,3.5-1,3.5-3.1c0-1.9-1.1-2.7-3.5-2.7h-3.8V77.3z"/>
				<path class="st3" d="M68.6,69.8h6.8c1.7,0,5.1,0.2,5.1,4.1c0,1.8-1,3.5-2.6,3.8v0.1c2.1,0.8,2.2,2.1,2.2,3.7
					c0.1,2.1,0,2.8,0.6,3.7h-2.2c-0.5-0.7-0.6-1.3-0.6-3.3c0-1.6-0.2-3.3-2.9-3.3h-4.4v6.5h-2.1V69.8z M70.7,76.9h4.6
					c1,0,3-0.4,3-2.8c0-2-1.4-2.6-3.3-2.6h-4.3V76.9z"/>
				<path class="st3" d="M93.8,76.3v1.7h-8.1v5.4h9.2v1.7H83.6V69.8h11v1.7h-8.9v4.8H93.8z"/>
				<path class="st3" d="M102.8,69.8c1.6,0,7.3,0.2,7.3,7.7c0,7.6-5.5,7.8-8.1,7.8h-4.9V69.8H102.8z M99.2,83.4h2.9
					c4,0,5.8-1.8,5.8-6c0-4.7-2.6-6-5.2-6h-3.5V83.4z"/>
				<path class="st3" d="M115,69.8v15.4h-2.1V69.8H115z"/>
				<path class="st3" d="M131.7,80.1c-0.3,2.2-1.6,5.6-6.5,5.6c-4.6,0-7.3-3-7.3-7.9c0-8.2,6-8.4,7.3-8.4c4.9,0,6.1,2.9,6.4,5.2
					h-2.1c-0.1-1.1-0.8-3.5-4.3-3.5c-3.9,0-5.1,3.3-5.1,6.6c0,3.6,2,6.3,5.2,6.3c2.5,0,4.2-1.6,4.4-3.8H131.7z"/>
				<path class="st3" d="M132.9,71.5v-1.7h12.1v1.7h-5v13.7h-2.1V71.5H132.9z"/>
				<path class="st3" d="M77.4,115.2h-2.1V99.8h2.3l8.2,12.2V99.8h2.1v15.4h-2.3l-8.2-12.2V115.2z"/>
				<path class="st3" d="M98.1,99.3c3.4,0,7.4,1.9,7.4,8.2c0,8.1-6.4,8.2-7.4,8.2c-1,0-7.4-0.1-7.4-8.2
					C90.7,102.1,93.8,99.3,98.1,99.3z M98.1,113.9c1.1,0,5.2-0.2,5.2-6.4c0-3.6-1.6-6.4-5.2-6.4c-4.7,0-5.2,4.8-5.2,6.4
					C92.9,109.9,93.7,113.9,98.1,113.9z"/>
				<path class="st3" d="M112.3,115.2h-2.6l-4.1-15.4h2.3l3.2,12.9l3.2-12.9h2.4l3.2,12.9l3.2-12.9h2.3l-4.1,15.4h-2.6l-3.2-13
					L112.3,115.2z"/>
			</g>
		</g>
	</g>
</g>
</svg>
