<?xml version="1.0" encoding="utf-8"?>
<!-- Generator: Adobe Illustrator 21.1.0, SVG Export Plug-In . SVG Version: 6.00 Build 0)  -->
<svg version="1.1" xmlns="http://www.w3.org/2000/svg" xmlns:xlink="http://www.w3.org/1999/xlink" x="0px" y="0px"
	 viewBox="0 0 200 200" style="enable-background:new 0 0 200 200;" xml:space="preserve">
<style type="text/css">
	.st0{fill:url(#SVGID_1_);}
	.st1{opacity:0.75;}
	.st2{fill:#242062;}
	.st3{fill:#CDD4EC;}
</style>
<g id="Layer_2">
</g>
<g id="Layer_1">
	<g>
		
			<radialGradient id="SVGID_1_" cx="97.5893" cy="683.0226" r="122.3181" gradientTransform="matrix(1 0 0 1 0 -570)" gradientUnits="userSpaceOnUse">
			<stop  offset="0" style="stop-color:#2A3492"/>
			<stop  offset="0.8587" style="stop-color:#2A3492;stop-opacity:0.1413"/>
			<stop  offset="1" style="stop-color:#2A3492;stop-opacity:0"/>
		</radialGradient>
		<polygon class="st0" points="99,-0.3 0,171.2 198,171.2 		"/>
	</g>
	<g>
		<g class="st1">
			<path class="st2" d="M86.3,75.6h3.2l-7.7,22h-3.5l-7.7-22h3.2l6.2,19L86.3,75.6z"/>
			<path class="st2" d="M101.5,88.8v1.7h-8.1v5.4h9.2v1.7H91.3V82.2h11v1.7h-8.9v4.8H101.5z"/>
			<path class="st2" d="M104.8,82.2h6.8c1.7,0,5.1,0.2,5.1,4.1c0,1.8-1,3.5-2.6,3.8v0.1c2.1,0.8,2.2,2.1,2.2,3.7
				c0.1,2.1,0,2.8,0.6,3.7h-2.2c-0.5-0.7-0.6-1.3-0.6-3.3c0-1.6-0.2-3.3-2.9-3.3h-4.4v6.5h-2.1V82.2z M106.9,89.3h4.6
				c1,0,3-0.4,3-2.8c0-2-1.4-2.6-3.3-2.6h-4.3V89.3z"/>
			<path class="st2" d="M127.2,82.2h2.5l-5.7,9v6.4h-2.1v-6.4l-5.7-9h2.5l4.3,7.1L127.2,82.2z"/>
			<path class="st2" d="M49.3,112.2c1.6,0,7.3,0.2,7.3,7.7c0,7.6-5.5,7.8-8.1,7.8h-4.9v-15.4H49.3z M45.7,125.8h2.9
				c4,0,5.8-1.8,5.8-6c0-4.7-2.6-6-5.2-6h-3.5V125.8z"/>
			<path class="st2" d="M65.9,111.7c3.4,0,7.4,1.9,7.4,8.2c0,8.1-6.4,8.2-7.4,8.2c-1,0-7.4-0.1-7.4-8.2
				C58.6,114.5,61.6,111.7,65.9,111.7z M65.9,126.3c1.1,0,5.2-0.2,5.2-6.4c0-3.6-1.6-6.4-5.2-6.4c-4.7,0-5.2,4.8-5.2,6.4
				C60.8,122.4,61.5,126.3,65.9,126.3z"/>
			<path class="st2" d="M77.9,112.2v9.2c0,1.9,0.1,5,4,5c3.1,0,4-1.7,4-5v-9.2H88v9.4c0,6.3-4.4,6.4-6.1,6.4c-5.6,0-6.1-3.8-6.1-6.4
				v-9.4H77.9z"/>
			<path class="st2" d="M98.2,112.2c3.7,0,4.6,2.1,4.6,3.9c0,1.7-1.1,3.1-2.6,3.3v0.1c1.3,0.2,3.2,1.1,3.2,3.8
				c0,2.2-1.1,4.3-5.5,4.3h-6.5v-15.4H98.2z M93.6,118.7h4.2c2.3,0,3-1.1,3-2.4c0-0.9-0.4-2.4-3-2.4h-4.2V118.7z M93.6,125.8h4.3
				c1.4,0,3.5-0.2,3.5-2.7c0-2-1.4-2.7-3.5-2.7h-4.3V125.8z"/>
			<path class="st2" d="M105.1,113.9v-1.7h12.1v1.7h-5v13.7h-2.1v-13.7H105.1z"/>
			<path class="st2" d="M128.6,118.9v1.7h-7.2v6.9h-2.1v-15.4h10.3v1.7h-8.3v5H128.6z"/>
			<path class="st2" d="M133.6,112.2v9.2c0,1.9,0.1,5,4,5c3.1,0,4-1.7,4-5v-9.2h2.1v9.4c0,6.3-4.4,6.4-6.1,6.4
				c-5.6,0-6.1-3.8-6.1-6.4v-9.4H133.6z"/>
			<path class="st2" d="M157.1,127.6h-9.9v-15.4h2.1v13.7h7.8V127.6z"/>
		</g>
		<g>
			<g>
				<path class="st3" d="M84.9,74.1h3.2l-7.7,22h-3.5l-7.7-22h3.2l6.2,19L84.9,74.1z"/>
				<path class="st3" d="M100.1,87.3v1.7H92v5.4h9.2v1.7H89.9V80.8h11v1.7H92v4.8H100.1z"/>
				<path class="st3" d="M103.4,80.8h6.8c1.7,0,5.1,0.2,5.1,4.1c0,1.8-1,3.5-2.6,3.8v0.1c2.1,0.8,2.2,2.1,2.2,3.7
					c0.1,2.1,0,2.8,0.6,3.7h-2.2c-0.5-0.7-0.6-1.3-0.6-3.3c0-1.6-0.2-3.3-2.9-3.3h-4.4v6.5h-2.1V80.8z M105.5,87.9h4.6
					c1,0,3-0.4,3-2.8c0-2-1.4-2.6-3.3-2.6h-4.3V87.9z"/>
				<path class="st3" d="M125.8,80.8h2.5l-5.7,9v6.4h-2.1v-6.4l-5.7-9h2.5l4.3,7.1L125.8,80.8z"/>
				<path class="st3" d="M47.9,110.8c1.6,0,7.3,0.2,7.3,7.7c0,7.6-5.5,7.8-8.1,7.8h-4.9v-15.4H47.9z M44.3,124.4h2.9
					c4,0,5.8-1.8,5.8-6c0-4.7-2.6-6-5.2-6h-3.5V124.4z"/>
				<path class="st3" d="M64.5,110.3c3.4,0,7.4,1.9,7.4,8.2c0,8.1-6.4,8.2-7.4,8.2c-1,0-7.4-0.1-7.4-8.2
					C57.2,113.1,60.2,110.3,64.5,110.3z M64.5,124.9c1.1,0,5.2-0.2,5.2-6.4c0-3.6-1.6-6.4-5.2-6.4c-4.7,0-5.2,4.8-5.2,6.4
					C59.4,120.9,60.1,124.9,64.5,124.9z"/>
				<path class="st3" d="M76.5,110.8v9.2c0,1.9,0.1,5,4,5c3.1,0,4-1.7,4-5v-9.2h2.1v9.4c0,6.3-4.4,6.4-6.1,6.4
					c-5.6,0-6.1-3.8-6.1-6.4v-9.4H76.5z"/>
				<path class="st3" d="M96.8,110.8c3.7,0,4.6,2.1,4.6,3.9c0,1.7-1.1,3.1-2.6,3.3v0.1c1.3,0.2,3.2,1.1,3.2,3.8
					c0,2.2-1.1,4.3-5.5,4.3h-6.5v-15.4H96.8z M92.1,117.3h4.2c2.3,0,3-1.1,3-2.4c0-0.9-0.4-2.4-3-2.4h-4.2V117.3z M92.1,124.4h4.3
					c1.4,0,3.5-0.2,3.5-2.7c0-2-1.4-2.7-3.5-2.7h-4.3V124.4z"/>
				<path class="st3" d="M103.7,112.5v-1.7h12.1v1.7h-5v13.7h-2.1v-13.7H103.7z"/>
				<path class="st3" d="M127.2,117.5v1.7H120v6.9h-2.1v-15.4h10.3v1.7H120v5H127.2z"/>
				<path class="st3" d="M132.2,110.8v9.2c0,1.9,0.1,5,4,5c3.1,0,4-1.7,4-5v-9.2h2.1v9.4c0,6.3-4.4,6.4-6.1,6.4
					c-5.6,0-6.1-3.8-6.1-6.4v-9.4H132.2z"/>
				<path class="st3" d="M155.7,126.2h-9.9v-15.4h2.1v13.7h7.8V126.2z"/>
			</g>
		</g>
	</g>
</g>
</svg>
