<?xml version="1.0" encoding="utf-8"?>
<!-- Generator: Adobe Illustrator 21.1.0, SVG Export Plug-In . SVG Version: 6.00 Build 0)  -->
<svg version="1.1" xmlns="http://www.w3.org/2000/svg" xmlns:xlink="http://www.w3.org/1999/xlink" x="0px" y="0px"
	 viewBox="0 0 200 200" style="enable-background:new 0 0 200 200;" xml:space="preserve">
<style type="text/css">
	.st0{fill:url(#SVGID_1_);}
	.st1{opacity:0.75;}
	.st2{fill:#242062;}
	.st3{fill:#CDD4EC;}
</style>
<g id="Layer_2">
</g>
<g id="Layer_1">
	<g>
		
			<radialGradient id="SVGID_1_" cx="97.5563" cy="569.0226" r="122.3181" gradientTransform="matrix(1 0 0 1 0 -456)" gradientUnits="userSpaceOnUse">
			<stop  offset="0" style="stop-color:#2A3492"/>
			<stop  offset="0.8587" style="stop-color:#2A3492;stop-opacity:0.1413"/>
			<stop  offset="1" style="stop-color:#2A3492;stop-opacity:0"/>
		</radialGradient>
		<polygon class="st0" points="99,-0.3 -0.1,171.2 198,171.2 		"/>
	</g>
	<g>
		<g class="st1">
			<path class="st2" d="M72.1,76.6c2.3,0,10.5,0.3,10.5,10.9c0,10.8-7.8,11.1-11.6,11.1h-7v-22H72.1z M67,96.1h4.1
				c5.7,0,8.3-2.6,8.3-8.5c0-6.7-3.7-8.5-7.5-8.5h-5V96.1z"/>
			<path class="st2" d="M92.3,82.7c3.4,0,7.4,1.9,7.4,8.2c0,8.1-6.4,8.2-7.4,8.2c-1,0-7.4-0.1-7.4-8.2C85,85.5,88,82.7,92.3,82.7z
				 M92.3,97.3c1.1,0,5.2-0.2,5.2-6.4c0-3.6-1.6-6.4-5.2-6.4c-4.7,0-5.2,4.8-5.2,6.4C87.2,93.4,87.9,97.3,92.3,97.3z"/>
			<path class="st2" d="M104.6,98.6h-2.1V83.2h2.3l8.2,12.2V83.2h2.1v15.4h-2.3l-8.2-12.2V98.6z"/>
			<path class="st2" d="M123.4,76.6V81c0,2.5-1.9,3.4-3.1,3.7v-1.7c0.9-0.1,1.6-1,1.6-2v-1h-1.6v-3.4H123.4z"/>
			<path class="st2" d="M127,84.9v-1.7h12.1v1.7h-5v13.7h-2.1V84.9H127z"/>
			<path class="st2" d="M76.9,123.5c-0.3,2.2-1.6,5.6-6.5,5.6c-4.6,0-7.3-3-7.3-7.9c0-8.2,6-8.4,7.3-8.4c4.9,0,6.1,2.9,6.4,5.2h-2.1
				c-0.1-1.1-0.8-3.5-4.3-3.5c-3.9,0-5.1,3.3-5.1,6.6c0,3.6,2,6.3,5.2,6.3c2.5,0,4.2-1.6,4.4-3.8H76.9z"/>
			<path class="st2" d="M86.1,112.7c3.4,0,7.4,1.9,7.4,8.2c0,8.1-6.4,8.2-7.4,8.2c-1,0-7.4-0.1-7.4-8.2
				C78.7,115.5,81.8,112.7,86.1,112.7z M86.1,127.3c1.1,0,5.2-0.2,5.2-6.4c0-3.6-1.6-6.4-5.2-6.4c-4.7,0-5.2,4.8-5.2,6.4
				C80.9,123.4,81.7,127.3,86.1,127.3z"/>
			<path class="st2" d="M98.1,113.2v9.2c0,1.9,0.1,5,4,5c3.1,0,4-1.7,4-5v-9.2h2.1v9.4c0,6.3-4.4,6.4-6.1,6.4
				c-5.6,0-6.1-3.8-6.1-6.4v-9.4H98.1z"/>
			<path class="st2" d="M113.7,128.6h-2.1v-15.4h2.3l8.2,12.2v-12.2h2.1v15.4h-2.3l-8.2-12.2V128.6z"/>
			<path class="st2" d="M126.3,114.9v-1.7h12.1v1.7h-5v13.7h-2.1v-13.7H126.3z"/>
			<path class="st2" d="M79.3,142.7c3.4,0,7.4,1.9,7.4,8.2c0,8.1-6.4,8.2-7.4,8.2c-1,0-7.4-0.1-7.4-8.2
				C72,145.5,75,142.7,79.3,142.7z M79.3,157.3c1.1,0,5.2-0.2,5.2-6.4c0-3.6-1.6-6.4-5.2-6.4c-4.7,0-5.2,4.8-5.2,6.4
				C74.2,153.4,74.9,157.3,79.3,157.3z"/>
			<path class="st2" d="M91.6,158.6h-2.1v-15.4h2.3l8.2,12.2v-12.2h2.1v15.4h-2.3l-8.2-12.2V158.6z"/>
			<path class="st2" d="M115.2,143.2v15.4h-2.1v-15.4H115.2z"/>
			<path class="st2" d="M117.4,144.9v-1.7h12.1v1.7h-5v13.7h-2.1v-13.7H117.4z"/>
		</g>
		<g>
			<g>
				<path class="st3" d="M70.7,75.1c2.3,0,10.5,0.3,10.5,10.9c0,10.8-7.8,11.1-11.6,11.1h-7v-22H70.7z M65.6,94.7h4.1
					c5.7,0,8.3-2.6,8.3-8.5c0-6.7-3.7-8.5-7.5-8.5h-5V94.7z"/>
				<path class="st3" d="M90.9,81.3c3.4,0,7.4,1.9,7.4,8.2c0,8.1-6.4,8.2-7.4,8.2c-1,0-7.4-0.1-7.4-8.2
					C83.5,84.1,86.6,81.3,90.9,81.3z M90.9,95.9c1.1,0,5.2-0.2,5.2-6.4c0-3.6-1.6-6.4-5.2-6.4c-4.7,0-5.2,4.8-5.2,6.4
					C85.7,91.9,86.5,95.9,90.9,95.9z"/>
				<path class="st3" d="M103.2,97.2h-2.1V81.8h2.3l8.2,12.2V81.8h2.1v15.4h-2.3l-8.2-12.2V97.2z"/>
				<path class="st3" d="M122,75.1v4.4c0,2.5-1.9,3.4-3.1,3.7v-1.7c0.9-0.1,1.6-1,1.6-2v-1h-1.6v-3.4H122z"/>
				<path class="st3" d="M125.6,83.5v-1.7h12.1v1.7h-5v13.7h-2.1V83.5H125.6z"/>
				<path class="st3" d="M75.5,122.1c-0.3,2.2-1.6,5.6-6.5,5.6c-4.6,0-7.3-3-7.3-7.9c0-8.2,6-8.4,7.3-8.4c4.9,0,6.1,2.9,6.4,5.2
					h-2.1c-0.1-1.1-0.8-3.5-4.3-3.5c-3.9,0-5.1,3.3-5.1,6.6c0,3.6,2,6.3,5.2,6.3c2.5,0,4.2-1.6,4.4-3.8H75.5z"/>
				<path class="st3" d="M84.7,111.3c3.4,0,7.4,1.9,7.4,8.2c0,8.1-6.4,8.2-7.4,8.2c-1,0-7.4-0.1-7.4-8.2
					C77.3,114.1,80.4,111.3,84.7,111.3z M84.7,125.9c1.1,0,5.2-0.2,5.2-6.4c0-3.6-1.6-6.4-5.2-6.4c-4.7,0-5.2,4.8-5.2,6.4
					C79.5,121.9,80.3,125.9,84.7,125.9z"/>
				<path class="st3" d="M96.7,111.8v9.2c0,1.9,0.1,5,4,5c3.1,0,4-1.7,4-5v-9.2h2.1v9.4c0,6.3-4.4,6.4-6.1,6.4
					c-5.6,0-6.1-3.8-6.1-6.4v-9.4H96.7z"/>
				<path class="st3" d="M112.3,127.2h-2.1v-15.4h2.3l8.2,12.2v-12.2h2.1v15.4h-2.3l-8.2-12.2V127.2z"/>
				<path class="st3" d="M124.9,113.5v-1.7H137v1.7h-5v13.7h-2.1v-13.7H124.9z"/>
				<path class="st3" d="M77.9,141.3c3.4,0,7.4,1.9,7.4,8.2c0,8.1-6.4,8.2-7.4,8.2c-1,0-7.4-0.1-7.4-8.2
					C70.6,144.1,73.6,141.3,77.9,141.3z M77.9,155.9c1.1,0,5.2-0.2,5.2-6.4c0-3.6-1.6-6.4-5.2-6.4c-4.7,0-5.2,4.8-5.2,6.4
					C72.8,151.9,73.5,155.9,77.9,155.9z"/>
				<path class="st3" d="M90.2,157.2h-2.1v-15.4h2.3l8.2,12.2v-12.2h2.1v15.4h-2.3l-8.2-12.2V157.2z"/>
				<path class="st3" d="M113.8,141.8v15.4h-2.1v-15.4H113.8z"/>
				<path class="st3" d="M116,143.5v-1.7h12.1v1.7h-5v13.7H121v-13.7H116z"/>
			</g>
		</g>
	</g>
</g>
</svg>
