<?xml version="1.0" encoding="utf-8"?>
<!-- Generator: Adobe Illustrator 21.1.0, SVG Export Plug-In . SVG Version: 6.00 Build 0)  -->
<svg version="1.1" xmlns="http://www.w3.org/2000/svg" xmlns:xlink="http://www.w3.org/1999/xlink" x="0px" y="0px"
	 viewBox="0 0 200 200" style="enable-background:new 0 0 200 200;" xml:space="preserve">
<style type="text/css">
	.st0{fill:url(#SVGID_1_);}
	.st1{opacity:0.75;}
	.st2{fill:#242062;}
	.st3{fill:#CDD4EC;}
</style>
<g id="Layer_2">
</g>
<g id="Layer_1">
	<g>
		
			<radialGradient id="SVGID_1_" cx="101.1162" cy="387.0226" r="122.3181" gradientTransform="matrix(-1 0 0 -1 201.923 460.0569)" gradientUnits="userSpaceOnUse">
			<stop  offset="0" style="stop-color:#2A3492"/>
			<stop  offset="0.8587" style="stop-color:#2A3492;stop-opacity:0.1413"/>
			<stop  offset="1" style="stop-color:#2A3492;stop-opacity:0"/>
		</radialGradient>
		<polygon class="st0" points="99.4,186.4 198.4,14.9 0.4,14.9 		"/>
	</g>
	<g>
		<g class="st1">
			<path class="st2" d="M38.3,32.6h9.8c2.4,0,7.3,0.3,7.3,5.9c0,2.5-1.4,4.9-3.8,5.4V44c3,1.1,3.1,3.1,3.2,5.3c0.1,3,0,4,0.9,5.3
				h-3.1c-0.8-1-0.8-1.8-0.8-4.7c0-2.3-0.2-4.7-4.2-4.7h-6.3v9.3h-3V32.6z M41.3,42.8h6.6c1.4,0,4.3-0.6,4.3-4c0-2.9-2-3.7-4.8-3.7
				h-6.2V42.8z"/>
			<path class="st2" d="M69.1,45.8v1.7H61v5.4h9.2v1.7H59V39.2h11v1.7H61v4.8H69.1z"/>
			<path class="st2" d="M78.7,39.2c3.1,0,5.2,1.2,5.2,4.4c0,2.9-1.4,4.8-5.4,4.8h-4v6.1h-2.1V39.2H78.7z M74.5,46.7h3.8
				c2.5,0,3.5-1,3.5-3.1c0-1.9-1.1-2.7-3.5-2.7h-3.8V46.7z"/>
			<path class="st2" d="M96.4,54.6h-9.9V39.2h2.1v13.7h7.8V54.6z"/>
			<path class="st2" d="M103.8,39.2h2.5l-5.7,9v6.4h-2.1v-6.4l-5.7-9h2.5l4.3,7.1L103.8,39.2z"/>
			<path class="st2" d="M115.8,54.6h-2.1V39.2h2.1v6.4h7.8v-6.4h2.1v15.4h-2.1v-7.2h-7.8V54.6z"/>
			<path class="st2" d="M129.6,54.6h-2.2l5.8-15.4h2.2l5.8,15.4H139l-1.5-4h-6.5L129.6,54.6z M137,48.9l-2.7-7.6l-2.7,7.6H137z"/>
			<path class="st2" d="M153.2,39.2v1.7l-8.9,12h9.4v1.7h-11.9v-1.9l9-11.8h-8.6v-1.7H153.2z"/>
			<path class="st2" d="M163.5,39.2h2.5l-5.7,9v6.4h-2.1v-6.4l-5.7-9h2.5l4.3,7.1L163.5,39.2z"/>
			<path class="st2" d="M81.4,70.9v-1.7h12.1v1.7h-5v13.7h-2.1V70.9H81.4z"/>
			<path class="st2" d="M95.7,69.2h6.8c1.7,0,5.1,0.2,5.1,4.1c0,1.8-1,3.5-2.6,3.8v0.1c2.1,0.8,2.2,2.1,2.2,3.7
				c0.1,2.1,0,2.8,0.6,3.7h-2.2c-0.5-0.7-0.6-1.3-0.6-3.3c0-1.6-0.2-3.3-2.9-3.3h-4.4v6.5h-2.1V69.2z M97.7,76.3h4.6
				c1,0,3-0.4,3-2.8c0-2-1.4-2.6-3.3-2.6h-4.3V76.3z"/>
			<path class="st2" d="M118.1,69.2h2.5l-5.7,9v6.4h-2.1v-6.4l-5.7-9h2.5l4.3,7.1L118.1,69.2z"/>
			<path class="st2" d="M69.2,114.6h-2.2l5.8-15.4H75l5.8,15.4h-2.2l-1.5-4h-6.5L69.2,114.6z M76.6,108.9l-2.7-7.6l-2.7,7.6H76.6z"
				/>
			<path class="st2" d="M95.8,106.5v8h-1.6v-2.5h0c-0.9,1.8-2.7,3-5.1,3c-3.7,0-7.2-2.1-7.2-8.3c0-5.2,3-8,7.5-8c4.1,0,6,2.5,6.3,5
				h-2.1c-0.1-1.4-1.1-3.3-4.2-3.3c-4.9,0-5.3,4.7-5.3,6.3c0,1.1,0.3,6.5,5.3,6.5c3.8,0,4.7-3.1,4.7-5h-4.4v-1.7H95.8z"/>
			<path class="st2" d="M99.2,114.6h-2.2l5.8-15.4h2.2l5.8,15.4h-2.2l-1.5-4h-6.5L99.2,114.6z M106.6,108.9l-2.7-7.6l-2.7,7.6H106.6
				z"/>
			<path class="st2" d="M114.7,99.2v15.4h-2.1V99.2H114.7z"/>
			<path class="st2" d="M120.5,114.6h-2.1V99.2h2.3l8.2,12.2V99.2h2.1v15.4h-2.3l-8.2-12.2V114.6z"/>
		</g>
		<g>
			<g>
				<path class="st3" d="M36.9,31.1h9.8c2.4,0,7.3,0.3,7.3,5.9c0,2.5-1.4,4.9-3.8,5.4v0.1c3,1.1,3.1,3.1,3.2,5.3c0.1,3,0,4,0.9,5.3
					h-3.1c-0.8-1-0.8-1.8-0.8-4.7c0-2.3-0.2-4.7-4.2-4.7h-6.3v9.3h-3V31.1z M39.9,41.3h6.6c1.4,0,4.3-0.6,4.3-4c0-2.9-2-3.7-4.8-3.7
					h-6.2V41.3z"/>
				<path class="st3" d="M67.7,44.3v1.7h-8.1v5.4h9.2v1.7H57.5V37.8h11v1.7h-8.9v4.8H67.7z"/>
				<path class="st3" d="M77.3,37.8c3.1,0,5.2,1.2,5.2,4.4c0,2.9-1.4,4.8-5.4,4.8h-4v6.1H71V37.8H77.3z M73.1,45.3h3.8
					c2.5,0,3.5-1,3.5-3.1c0-1.9-1.1-2.7-3.5-2.7h-3.8V45.3z"/>
				<path class="st3" d="M95,53.2h-9.9V37.8h2.1v13.7H95V53.2z"/>
				<path class="st3" d="M102.4,37.8h2.5l-5.7,9v6.4h-2.1v-6.4l-5.7-9h2.5l4.3,7.1L102.4,37.8z"/>
				<path class="st3" d="M114.4,53.2h-2.1V37.8h2.1v6.4h7.8v-6.4h2.1v15.4h-2.1v-7.2h-7.8V53.2z"/>
				<path class="st3" d="M128.2,53.2H126l5.8-15.4h2.2l5.8,15.4h-2.2l-1.5-4h-6.5L128.2,53.2z M135.6,47.4l-2.7-7.6l-2.7,7.6H135.6z
					"/>
				<path class="st3" d="M151.8,37.8v1.7l-8.9,12h9.4v1.7h-11.9v-1.9l9-11.8h-8.6v-1.7H151.8z"/>
				<path class="st3" d="M162.1,37.8h2.5l-5.7,9v6.4h-2.1v-6.4l-5.7-9h2.5l4.3,7.1L162.1,37.8z"/>
				<path class="st3" d="M80,69.5v-1.7h12.1v1.7h-5v13.7H85V69.5H80z"/>
				<path class="st3" d="M94.2,67.8h6.8c1.7,0,5.1,0.2,5.1,4.1c0,1.8-1,3.5-2.6,3.8v0.1c2.1,0.8,2.2,2.1,2.2,3.7
					c0.1,2.1,0,2.8,0.6,3.7h-2.2c-0.5-0.7-0.6-1.3-0.6-3.3c0-1.6-0.2-3.3-2.9-3.3h-4.4v6.5h-2.1V67.8z M96.3,74.9h4.6
					c1,0,3-0.4,3-2.8c0-2-1.4-2.6-3.3-2.6h-4.3V74.9z"/>
				<path class="st3" d="M116.6,67.8h2.5l-5.7,9v6.4h-2.1v-6.4l-5.7-9h2.5l4.3,7.1L116.6,67.8z"/>
				<path class="st3" d="M67.8,113.2h-2.2l5.8-15.4h2.2l5.8,15.4h-2.2l-1.5-4h-6.5L67.8,113.2z M75.2,107.4l-2.7-7.6l-2.7,7.6H75.2z
					"/>
				<path class="st3" d="M94.3,105.1v8h-1.6v-2.5h0c-0.9,1.8-2.7,3-5.1,3c-3.7,0-7.2-2.1-7.2-8.3c0-5.2,3-8,7.5-8c4.1,0,6,2.5,6.3,5
					H92c-0.1-1.4-1.1-3.3-4.2-3.3c-4.9,0-5.3,4.7-5.3,6.3c0,1.1,0.3,6.5,5.3,6.5c3.8,0,4.7-3.1,4.7-5H88v-1.7H94.3z"/>
				<path class="st3" d="M97.7,113.2h-2.2l5.8-15.4h2.2l5.8,15.4h-2.2l-1.5-4h-6.5L97.7,113.2z M105.1,107.4l-2.7-7.6l-2.7,7.6
					H105.1z"/>
				<path class="st3" d="M113.3,97.8v15.4h-2.1V97.8H113.3z"/>
				<path class="st3" d="M119.1,113.2H117V97.8h2.3l8.2,12.2V97.8h2.1v15.4h-2.3l-8.2-12.2V113.2z"/>
			</g>
		</g>
	</g>
</g>
</svg>
