<?xml version="1.0" encoding="utf-8"?>
<!-- Generator: Adobe Illustrator 21.1.0, SVG Export Plug-In . SVG Version: 6.00 Build 0)  -->
<svg version="1.1" xmlns="http://www.w3.org/2000/svg" xmlns:xlink="http://www.w3.org/1999/xlink" x="0px" y="0px"
	 viewBox="0 0 200 200" style="enable-background:new 0 0 200 200;" xml:space="preserve">
<style type="text/css">
	.st0{fill:url(#SVGID_1_);}
	.st1{opacity:0.75;}
	.st2{fill:#242062;}
	.st3{fill:#CDD4EC;}
</style>
<g id="Layer_2">
</g>
<g id="Layer_1">
	<g>
		
			<radialGradient id="SVGID_1_" cx="100.3712" cy="160.8077" r="122.3181" gradientTransform="matrix(-1 0 0 -1 200.9231 231.6269)" gradientUnits="userSpaceOnUse">
			<stop  offset="0" style="stop-color:#2A3492"/>
			<stop  offset="0.8587" style="stop-color:#2A3492;stop-opacity:0.1413"/>
			<stop  offset="1" style="stop-color:#2A3492;stop-opacity:0"/>
		</radialGradient>
		<polygon class="st0" points="99.1,184.2 198.2,12.6 0.1,12.6 		"/>
	</g>
	<g>
		<g class="st1">
			<path class="st2" d="M57.2,51.6h-3.8l-5.9-22h3.3l4.6,18.5l4.6-18.5h3.4l4.6,18.5l4.6-18.5H76l-5.9,22h-3.8l-4.6-18.5L57.2,51.6z
				"/>
			<path class="st2" d="M78.7,36.2v15.4h-2.1V36.2H78.7z"/>
			<path class="st2" d="M80.8,37.9v-1.7h12.1v1.7h-5v13.7h-2.1V37.9H80.8z"/>
			<path class="st2" d="M97.1,51.6h-2.1V36.2h2.1v6.4h7.8v-6.4h2.1v15.4h-2.1v-7.2h-7.8V51.6z"/>
			<path class="st2" d="M117.2,35.7c3.4,0,7.4,1.9,7.4,8.2c0,8.1-6.4,8.2-7.4,8.2c-1,0-7.4-0.1-7.4-8.2
				C109.8,38.5,112.9,35.7,117.2,35.7z M117.2,50.3c1.1,0,5.2-0.2,5.2-6.4c0-3.6-1.6-6.4-5.2-6.4c-4.7,0-5.2,4.8-5.2,6.4
				C112,46.4,112.8,50.3,117.2,50.3z"/>
			<path class="st2" d="M129.2,36.2v9.2c0,1.9,0.1,5,4,5c3.1,0,4-1.7,4-5v-9.2h2.1v9.4c0,6.3-4.4,6.4-6.1,6.4
				c-5.6,0-6.1-3.8-6.1-6.4v-9.4H129.2z"/>
			<path class="st2" d="M141.1,37.9v-1.7h12.1v1.7h-5v13.7h-2.1V37.9H141.1z"/>
			<path class="st2" d="M96.5,81.6h-2.2l5.8-15.4h2.2l5.8,15.4h-2.2l-1.5-4h-6.5L96.5,81.6z M103.9,75.9l-2.7-7.6l-2.7,7.6H103.9z"
				/>
			<path class="st2" d="M70.9,96.2c1.6,0,7.3,0.2,7.3,7.7c0,7.6-5.5,7.8-8.1,7.8h-4.9V96.2H70.9z M67.3,109.8h2.9c4,0,5.8-1.8,5.8-6
				c0-4.7-2.6-6-5.2-6h-3.5V109.8z"/>
			<path class="st2" d="M87.5,95.7c3.4,0,7.4,1.9,7.4,8.2c0,8.1-6.4,8.2-7.4,8.2c-1,0-7.4-0.1-7.4-8.2
				C80.2,98.5,83.2,95.7,87.5,95.7z M87.5,110.3c1.1,0,5.2-0.2,5.2-6.4c0-3.6-1.6-6.4-5.2-6.4c-4.7,0-5.2,4.8-5.2,6.4
				C82.4,106.4,83.1,110.3,87.5,110.3z"/>
			<path class="st2" d="M99.5,96.2v9.2c0,1.9,0.1,5,4,5c3.1,0,4-1.7,4-5v-9.2h2.1v9.4c0,6.3-4.4,6.4-6.1,6.4c-5.6,0-6.1-3.8-6.1-6.4
				v-9.4H99.5z"/>
			<path class="st2" d="M119.8,96.2c3.7,0,4.6,2.1,4.6,3.9c0,1.7-1.1,3.1-2.6,3.3v0.1c1.3,0.2,3.2,1.1,3.2,3.8
				c0,2.2-1.1,4.3-5.5,4.3h-6.5V96.2H119.8z M115.1,102.7h4.2c2.3,0,3-1.1,3-2.4c0-0.9-0.4-2.4-3-2.4h-4.2V102.7z M115.1,109.8h4.3
				c1.4,0,3.5-0.2,3.5-2.7c0-2-1.4-2.7-3.5-2.7h-4.3V109.8z"/>
			<path class="st2" d="M126.7,97.9v-1.7h12.1v1.7h-5v13.7h-2.1V97.9H126.7z"/>
		</g>
		<g>
			<g>
				<path class="st3" d="M55.8,50.2H52l-5.9-22h3.3l4.6,18.5l4.6-18.5h3.4l4.6,18.5l4.6-18.5h3.3l-5.9,22h-3.8l-4.6-18.5L55.8,50.2z
					"/>
				<path class="st3" d="M77.2,34.8v15.4h-2.1V34.8H77.2z"/>
				<path class="st3" d="M79.4,36.5v-1.7h12.1v1.7h-5v13.7h-2.1V36.5H79.4z"/>
				<path class="st3" d="M95.7,50.2h-2.1V34.8h2.1v6.4h7.8v-6.4h2.1v15.4h-2.1v-7.2h-7.8V50.2z"/>
				<path class="st3" d="M115.8,34.3c3.4,0,7.4,1.9,7.4,8.2c0,8.1-6.4,8.2-7.4,8.2c-1,0-7.4-0.1-7.4-8.2
					C108.4,37.1,111.5,34.3,115.8,34.3z M115.8,48.9c1.1,0,5.2-0.2,5.2-6.4c0-3.6-1.6-6.4-5.2-6.4c-4.7,0-5.2,4.8-5.2,6.4
					C110.6,44.9,111.4,48.9,115.8,48.9z"/>
				<path class="st3" d="M127.8,34.8v9.2c0,1.9,0.1,5,4,5c3.1,0,4-1.7,4-5v-9.2h2.1v9.4c0,6.3-4.4,6.4-6.1,6.4
					c-5.6,0-6.1-3.8-6.1-6.4v-9.4H127.8z"/>
				<path class="st3" d="M139.7,36.5v-1.7h12.1v1.7h-5v13.7h-2.1V36.5H139.7z"/>
				<path class="st3" d="M95.1,80.2h-2.2l5.8-15.4h2.2l5.8,15.4h-2.2l-1.5-4h-6.5L95.1,80.2z M102.5,74.4l-2.7-7.6l-2.7,7.6H102.5z"
					/>
				<path class="st3" d="M69.5,94.8c1.6,0,7.3,0.2,7.3,7.7c0,7.6-5.5,7.8-8.1,7.8h-4.9V94.8H69.5z M65.9,108.4h2.9
					c4,0,5.8-1.8,5.8-6c0-4.7-2.6-6-5.2-6h-3.5V108.4z"/>
				<path class="st3" d="M86.1,94.3c3.4,0,7.4,1.9,7.4,8.2c0,8.1-6.4,8.2-7.4,8.2c-1,0-7.4-0.1-7.4-8.2
					C78.8,97.1,81.8,94.3,86.1,94.3z M86.1,108.9c1.1,0,5.2-0.2,5.2-6.4c0-3.6-1.6-6.4-5.2-6.4c-4.7,0-5.2,4.8-5.2,6.4
					C81,104.9,81.7,108.9,86.1,108.9z"/>
				<path class="st3" d="M98.1,94.8v9.2c0,1.9,0.1,5,4,5c3.1,0,4-1.7,4-5v-9.2h2.1v9.4c0,6.3-4.4,6.4-6.1,6.4
					c-5.6,0-6.1-3.8-6.1-6.4v-9.4H98.1z"/>
				<path class="st3" d="M118.4,94.8c3.7,0,4.6,2.1,4.6,3.9c0,1.7-1.1,3.1-2.6,3.3v0.1c1.3,0.2,3.2,1.1,3.2,3.8
					c0,2.2-1.1,4.3-5.5,4.3h-6.5V94.8H118.4z M113.7,101.3h4.2c2.3,0,3-1.1,3-2.4c0-0.9-0.4-2.4-3-2.4h-4.2V101.3z M113.7,108.4h4.3
					c1.4,0,3.5-0.2,3.5-2.7c0-2-1.4-2.7-3.5-2.7h-4.3V108.4z"/>
				<path class="st3" d="M125.2,96.5v-1.7h12.1v1.7h-5v13.7h-2.1V96.5H125.2z"/>
			</g>
		</g>
	</g>
</g>
</svg>
