<?xml version="1.0" encoding="utf-8"?>
<!-- Generator: Adobe Illustrator 21.1.0, SVG Export Plug-In . SVG Version: 6.00 Build 0)  -->
<svg version="1.1" xmlns="http://www.w3.org/2000/svg" xmlns:xlink="http://www.w3.org/1999/xlink" x="0px" y="0px"
	 viewBox="0 0 200 200" style="enable-background:new 0 0 200 200;" xml:space="preserve">
<style type="text/css">
	.st0{fill:url(#SVGID_1_);}
	.st1{opacity:0.75;}
	.st2{fill:#242062;}
	.st3{fill:#CDD4EC;}
</style>
<g id="Layer_2">
</g>
<g id="Layer_1">
	<g>
		
			<radialGradient id="SVGID_1_" cx="101.1858" cy="387.0226" r="122.3181" gradientTransform="matrix(-1 0 0 -1 201.923 460.0569)" gradientUnits="userSpaceOnUse">
			<stop  offset="0" style="stop-color:#2A3492"/>
			<stop  offset="0.8587" style="stop-color:#2A3492;stop-opacity:0.1413"/>
			<stop  offset="1" style="stop-color:#2A3492;stop-opacity:0"/>
		</radialGradient>
		<polygon class="st0" points="99.3,186.4 198.4,14.9 0.3,14.9 		"/>
	</g>
	<g>
		<g class="st1">
			<path class="st2" d="M88.2,70.6h3.5l-8.1,12.8v9.2h-3v-9.2l-8.2-12.8h3.5l6.1,10.2L88.2,70.6z"/>
			<path class="st2" d="M106.4,80v2.5H94.8v7.6h13.1v2.5h-16v-22h15.7V73H94.8V80H106.4z"/>
			<path class="st2" d="M112.8,85.6c-0.1,2.9,2.3,5.2,6.3,5.2c3.9,0,5.4-2,5.4-4.1c0-2.7-2.4-3.4-4.4-3.9c-5-1.1-9.5-1.5-9.5-6.6
				c0-4.2,3.4-6.3,8.3-6.3c5.4,0,7.9,3,8.1,6.4h-3c-0.4-3.6-3.9-3.9-5.3-3.9c-3.1,0-5.1,1.4-5.1,3.7c0,2.7,2.6,3.1,5.5,3.7
				c3.9,0.8,8.4,1.6,8.4,6.9c0,6.6-6.9,6.6-8.7,6.6c-3.1,0-8.7-0.7-9.1-7.6H112.8z"/>
		</g>
		<g>
			<g>
				<path class="st3" d="M86.8,69.1h3.5L82.1,82v9.2h-3V82L71,69.1h3.5l6.1,10.2L86.8,69.1z"/>
				<path class="st3" d="M104.9,78.5V81H93.4v7.6h13.1v2.5h-16v-22h15.7v2.5H93.4v6.9H104.9z"/>
				<path class="st3" d="M111.4,84.2c-0.1,2.9,2.3,5.2,6.3,5.2c3.9,0,5.4-2,5.4-4.1c0-2.7-2.4-3.4-4.4-3.9c-5-1.1-9.5-1.5-9.5-6.6
					c0-4.2,3.4-6.3,8.3-6.3c5.4,0,7.9,3,8.1,6.4h-3c-0.4-3.6-3.9-3.9-5.3-3.9c-3.1,0-5.1,1.4-5.1,3.7c0,2.7,2.6,3.1,5.5,3.7
					c3.9,0.8,8.4,1.6,8.4,6.9c0,6.6-6.9,6.6-8.7,6.6c-3.1,0-8.7-0.7-9.1-7.6H111.4z"/>
			</g>
		</g>
	</g>
</g>
</svg>
